<?xml version="1.0" encoding="utf-8" standalone="no"?>
<!DOCTYPE svg PUBLIC "-//W3C//DTD SVG 1.1//EN"
  "http://www.w3.org/Graphics/SVG/1.1/DTD/svg11.dtd">
<svg xmlns:xlink="http://www.w3.org/1999/xlink" width="1080pt" height="216pt" viewBox="0 0 1080 216" xmlns="http://www.w3.org/2000/svg" version="1.1">
 <metadata>
  <rdf:RDF xmlns:dc="http://purl.org/dc/elements/1.1/" xmlns:cc="http://creativecommons.org/ns#" xmlns:rdf="http://www.w3.org/1999/02/22-rdf-syntax-ns#">
   <cc:Work>
    <dc:type rdf:resource="http://purl.org/dc/dcmitype/StillImage"/>
    <dc:date>2024-11-02T18:20:46.354244</dc:date>
    <dc:format>image/svg+xml</dc:format>
    <dc:creator>
     <cc:Agent>
      <dc:title>Matplotlib v3.7.0, https://matplotlib.org/</dc:title>
     </cc:Agent>
    </dc:creator>
   </cc:Work>
  </rdf:RDF>
 </metadata>
 <defs>
  <style type="text/css">*{stroke-linejoin: round; stroke-linecap: butt}</style>
 </defs>
 <g id="figure_1">
  <g id="patch_1">
   <path d="M 0 216 
L 1080 216 
L 1080 0 
L 0 0 
z
" style="fill: #ffffff"/>
  </g>
  <g id="axes_1">
   <g id="patch_2">
    <path d="M 135 192.24 
L 279.310345 192.24 
L 279.310345 25.92 
L 135 25.92 
z
" style="fill: #ffffff"/>
   </g>
   <g id="matplotlib.axis_1">
    <g id="xtick_1">
     <g id="line2d_1">
      <path d="M 141.559561 192.24 
L 141.559561 25.92 
" clip-path="url(#p5c615b8b35)" style="fill: none; stroke: #cccccc; stroke-linecap: round"/>
     </g>
     <g id="line2d_2"/>
     <g id="text_1">
      <!-- 0 -->
      <g style="fill: #262626" transform="translate(138.529874 206.760312) scale(0.1 -0.1)">
       <defs>
        <path id="NanumGothic-30" d="M 3066 2093 
Q 3066 4102 1965 4102 
Q 864 4102 864 2093 
Q 864 77 1965 77 
Q 3066 77 3066 2093 
z
M 3526 2093 
Q 3526 -326 1965 -326 
Q 390 -326 390 2093 
Q 390 3098 698 3725 
Q 1088 4512 1965 4512 
Q 2829 4512 3226 3725 
Q 3373 3411 3449 3008 
Q 3526 2605 3526 2093 
z
" transform="scale(0.015625)"/>
       </defs>
       <use xlink:href="#NanumGothic-30"/>
      </g>
     </g>
    </g>
    <g id="xtick_2">
     <g id="line2d_3">
      <path d="M 185.583461 192.24 
L 185.583461 25.92 
" clip-path="url(#p5c615b8b35)" style="fill: none; stroke: #cccccc; stroke-linecap: round"/>
     </g>
     <g id="line2d_4"/>
     <g id="text_2">
      <!-- 50 -->
      <g style="fill: #262626" transform="translate(179.524086 206.760312) scale(0.1 -0.1)">
       <defs>
        <path id="NanumGothic-35" d="M 736 -205 
Q 646 -173 646 -90 
L 646 179 
Q 646 288 736 243 
Q 966 134 1187 89 
Q 1408 45 1670 45 
Q 2234 45 2586 320 
Q 2970 614 2970 1165 
Q 2970 2246 1734 2246 
Q 1491 2246 1296 2220 
Q 1101 2195 864 2131 
Q 794 2112 749 2147 
Q 704 2182 704 2253 
L 742 4294 
Q 742 4429 764 4451 
Q 787 4474 922 4474 
L 3110 4474 
Q 3200 4474 3200 4384 
L 3200 4173 
Q 3200 4083 3110 4083 
L 1178 4083 
Q 1171 3680 1161 3296 
Q 1152 2912 1146 2509 
Q 1459 2630 1907 2630 
Q 2579 2630 2995 2266 
Q 3411 1888 3411 1254 
Q 3411 480 2931 58 
Q 2470 -346 1670 -346 
Q 1382 -346 1171 -314 
Q 960 -282 736 -205 
z
" transform="scale(0.015625)"/>
       </defs>
       <use xlink:href="#NanumGothic-35"/>
       <use xlink:href="#NanumGothic-30" x="60.599991"/>
      </g>
     </g>
    </g>
    <g id="xtick_3">
     <g id="line2d_5">
      <path d="M 229.607362 192.24 
L 229.607362 25.92 
" clip-path="url(#p5c615b8b35)" style="fill: none; stroke: #cccccc; stroke-linecap: round"/>
     </g>
     <g id="line2d_6"/>
     <g id="text_3">
      <!-- 100 -->
      <g style="fill: #262626" transform="translate(220.518299 206.760312) scale(0.1 -0.1)">
       <defs>
        <path id="NanumGothic-31" d="M 2362 -211 
Q 2362 -301 2272 -301 
L 2010 -301 
Q 1920 -301 1920 -211 
L 1920 3949 
Q 1722 3782 1549 3635 
Q 1376 3488 1184 3322 
Q 1114 3264 1056 3334 
L 928 3488 
Q 909 3520 909 3555 
Q 909 3590 941 3616 
L 1933 4448 
Q 1958 4474 2010 4474 
L 2182 4474 
Q 2317 4474 2339 4451 
Q 2362 4429 2362 4294 
L 2362 -211 
z
" transform="scale(0.015625)"/>
       </defs>
       <use xlink:href="#NanumGothic-31"/>
       <use xlink:href="#NanumGothic-30" x="60.599991"/>
       <use xlink:href="#NanumGothic-30" x="121.199982"/>
      </g>
     </g>
    </g>
    <g id="xtick_4">
     <g id="line2d_7">
      <path d="M 273.631262 192.24 
L 273.631262 25.92 
" clip-path="url(#p5c615b8b35)" style="fill: none; stroke: #cccccc; stroke-linecap: round"/>
     </g>
     <g id="line2d_8"/>
     <g id="text_4">
      <!-- 150 -->
      <g style="fill: #262626" transform="translate(264.542199 206.760312) scale(0.1 -0.1)">
       <use xlink:href="#NanumGothic-31"/>
       <use xlink:href="#NanumGothic-35" x="60.599991"/>
       <use xlink:href="#NanumGothic-30" x="121.199982"/>
      </g>
     </g>
    </g>
   </g>
   <g id="matplotlib.axis_2">
    <g id="ytick_1">
     <g id="line2d_9">
      <path d="M 135 172.650079 
L 279.310345 172.650079 
" clip-path="url(#p5c615b8b35)" style="fill: none; stroke: #cccccc; stroke-linecap: round"/>
     </g>
     <g id="line2d_10"/>
     <g id="text_5">
      <!-- 0.0 -->
      <g style="fill: #262626" transform="translate(112.851562 176.410235) scale(0.1 -0.1)">
       <defs>
        <path id="NanumGothic-2e" d="M 691 -256 
Q 691 -122 784 -29 
Q 877 64 1011 64 
Q 1146 64 1238 -29 
Q 1331 -122 1331 -256 
Q 1331 -390 1238 -483 
Q 1146 -576 1011 -576 
Q 877 -576 784 -483 
Q 691 -390 691 -256 
z
" transform="scale(0.015625)"/>
       </defs>
       <use xlink:href="#NanumGothic-30"/>
       <use xlink:href="#NanumGothic-2e" x="60.599991"/>
       <use xlink:href="#NanumGothic-30" x="90.899979"/>
      </g>
     </g>
    </g>
    <g id="ytick_2">
     <g id="line2d_11">
      <path d="M 135 137.510161 
L 279.310345 137.510161 
" clip-path="url(#p5c615b8b35)" style="fill: none; stroke: #cccccc; stroke-linecap: round"/>
     </g>
     <g id="line2d_12"/>
     <g id="text_6">
      <!-- 0.2 -->
      <g style="fill: #262626" transform="translate(112.851562 141.270317) scale(0.1 -0.1)">
       <defs>
        <path id="NanumGothic-32" d="M 576 -301 
Q 506 -301 470 -297 
Q 435 -294 419 -278 
Q 403 -262 400 -227 
Q 397 -192 397 -122 
L 403 19 
Q 403 102 454 154 
L 1510 1318 
Q 2688 2592 2688 3251 
Q 2688 3635 2432 3891 
Q 2182 4141 1811 4141 
Q 1293 4141 730 3853 
Q 640 3808 627 3891 
L 589 4102 
Q 570 4211 653 4237 
Q 979 4384 1241 4454 
Q 1504 4525 1779 4525 
Q 2394 4525 2758 4218 
Q 3168 3885 3168 3270 
Q 3168 3034 3053 2752 
Q 2938 2470 2733 2163 
Q 2605 1984 2371 1696 
Q 2138 1408 1837 1082 
Q 1613 838 1392 588 
Q 1171 339 947 96 
L 3187 96 
Q 3277 96 3277 6 
L 3277 -211 
Q 3277 -301 3187 -301 
L 576 -301 
z
" transform="scale(0.015625)"/>
       </defs>
       <use xlink:href="#NanumGothic-30"/>
       <use xlink:href="#NanumGothic-2e" x="60.599991"/>
       <use xlink:href="#NanumGothic-32" x="90.899979"/>
      </g>
     </g>
    </g>
    <g id="ytick_3">
     <g id="line2d_13">
      <path d="M 135 102.370244 
L 279.310345 102.370244 
" clip-path="url(#p5c615b8b35)" style="fill: none; stroke: #cccccc; stroke-linecap: round"/>
     </g>
     <g id="line2d_14"/>
     <g id="text_7">
      <!-- 0.4 -->
      <g style="fill: #262626" transform="translate(112.851562 106.1304) scale(0.1 -0.1)">
       <defs>
        <path id="NanumGothic-34" d="M 2509 1216 
L 2509 4070 
Q 2035 3354 1568 2643 
Q 1101 1933 621 1216 
L 2509 1216 
z
M 2944 -211 
Q 2944 -301 2854 -301 
L 2598 -301 
Q 2509 -301 2509 -211 
L 2509 826 
L 397 826 
Q 262 826 240 848 
Q 218 870 218 1005 
L 218 1203 
Q 218 1261 224 1280 
Q 230 1299 262 1350 
L 2304 4397 
Q 2342 4454 2358 4464 
Q 2374 4474 2445 4474 
L 2765 4474 
Q 2899 4474 2921 4451 
Q 2944 4429 2944 4294 
L 2944 1216 
L 3578 1216 
Q 3667 1216 3667 1126 
L 3667 915 
Q 3667 826 3578 826 
L 2944 826 
L 2944 -211 
z
" transform="scale(0.015625)"/>
       </defs>
       <use xlink:href="#NanumGothic-30"/>
       <use xlink:href="#NanumGothic-2e" x="60.599991"/>
       <use xlink:href="#NanumGothic-34" x="90.899979"/>
      </g>
     </g>
    </g>
    <g id="ytick_4">
     <g id="line2d_15">
      <path d="M 135 67.230327 
L 279.310345 67.230327 
" clip-path="url(#p5c615b8b35)" style="fill: none; stroke: #cccccc; stroke-linecap: round"/>
     </g>
     <g id="line2d_16"/>
     <g id="text_8">
      <!-- 0.6 -->
      <g style="fill: #262626" transform="translate(112.851562 70.990483) scale(0.1 -0.1)">
       <defs>
        <path id="NanumGothic-36" d="M 3078 1203 
Q 3078 1722 2810 2022 
Q 2541 2330 2042 2330 
Q 1786 2330 1581 2250 
Q 1376 2170 1232 2029 
Q 1088 1888 1008 1689 
Q 928 1491 928 1254 
Q 928 768 1197 435 
Q 1491 45 1984 45 
Q 2490 45 2797 384 
Q 3078 704 3078 1203 
z
M 3245 4013 
Q 3098 4064 2909 4096 
Q 2720 4128 2534 4128 
Q 1664 4128 1248 3501 
Q 896 2976 883 2061 
Q 1024 2317 1293 2496 
Q 1626 2733 2042 2733 
Q 2624 2733 3021 2426 
Q 3526 2035 3526 1235 
Q 3526 557 3110 109 
Q 2688 -346 1971 -346 
Q 435 -346 435 1920 
Q 435 3104 909 3770 
Q 1466 4525 2586 4525 
Q 2752 4525 2934 4499 
Q 3117 4474 3270 4429 
Q 3366 4410 3354 4314 
L 3341 4077 
Q 3341 4032 3309 4016 
Q 3277 4000 3245 4013 
z
" transform="scale(0.015625)"/>
       </defs>
       <use xlink:href="#NanumGothic-30"/>
       <use xlink:href="#NanumGothic-2e" x="60.599991"/>
       <use xlink:href="#NanumGothic-36" x="90.899979"/>
      </g>
     </g>
    </g>
    <g id="ytick_5">
     <g id="line2d_17">
      <path d="M 135 32.090409 
L 279.310345 32.090409 
" clip-path="url(#p5c615b8b35)" style="fill: none; stroke: #cccccc; stroke-linecap: round"/>
     </g>
     <g id="line2d_18"/>
     <g id="text_9">
      <!-- 0.8 -->
      <g style="fill: #262626" transform="translate(112.851562 35.850565) scale(0.1 -0.1)">
       <defs>
        <path id="NanumGothic-38" d="M 2944 3360 
Q 2944 3725 2624 3936 
Q 2342 4134 1965 4134 
Q 1555 4134 1274 3930 
Q 966 3725 966 3360 
Q 966 3027 1286 2758 
Q 1376 2675 1526 2579 
Q 1677 2483 1882 2387 
Q 1933 2362 1965 2365 
Q 1997 2368 2061 2400 
Q 2470 2624 2707 2870 
Q 2944 3117 2944 3360 
z
M 3104 960 
Q 3104 1312 2784 1574 
Q 2682 1658 2496 1760 
Q 2310 1862 2042 1984 
Q 1958 2029 1856 1984 
Q 1606 1888 1414 1782 
Q 1222 1677 1107 1587 
Q 979 1459 899 1289 
Q 819 1120 819 928 
Q 819 538 1184 288 
Q 1517 38 1965 38 
Q 2426 38 2739 256 
Q 3104 506 3104 960 
z
M 3552 928 
Q 3552 614 3421 364 
Q 3290 115 3046 -51 
Q 2835 -192 2560 -269 
Q 2285 -346 1965 -346 
Q 1651 -346 1379 -262 
Q 1107 -179 883 -32 
Q 640 141 505 387 
Q 371 634 371 928 
Q 371 1427 704 1741 
Q 960 1984 1491 2182 
Q 518 2662 518 3411 
Q 518 3680 652 3888 
Q 787 4096 1030 4262 
Q 1235 4390 1468 4457 
Q 1702 4525 1965 4525 
Q 2272 4525 2515 4457 
Q 2758 4390 2957 4256 
Q 3398 3949 3398 3411 
Q 3398 2746 2400 2182 
Q 2662 2086 2870 1971 
Q 3078 1856 3206 1741 
Q 3552 1434 3552 928 
z
" transform="scale(0.015625)"/>
       </defs>
       <use xlink:href="#NanumGothic-30"/>
       <use xlink:href="#NanumGothic-2e" x="60.599991"/>
       <use xlink:href="#NanumGothic-38" x="90.899979"/>
      </g>
     </g>
    </g>
   </g>
   <g id="line2d_19">
    <path d="M 141.559561 144.65499 
L 143.320517 138.443401 
L 144.200995 134.191643 
L 145.081473 113.967964 
L 145.961951 112.954653 
L 146.842429 111.085131 
L 147.722907 111.048618 
L 148.603385 110.514285 
L 149.483863 108.35819 
L 150.364341 105.132109 
L 151.244819 105.072025 
L 152.125297 103.753663 
L 153.005775 103.123943 
L 154.766731 101.250633 
L 156.527687 100.05294 
L 157.408165 98.237342 
L 158.288643 98.090472 
L 159.169121 96.09567 
L 160.049599 95.693508 
L 160.930077 94.556059 
L 161.810555 94.093112 
L 162.691033 93.822831 
L 163.571511 92.105482 
L 165.332467 91.94359 
L 166.212945 91.913582 
L 167.093423 88.651738 
L 167.973901 86.72042 
L 168.854379 86.225704 
L 169.734857 85.981231 
L 170.615335 85.576179 
L 171.495813 85.020084 
L 172.376291 84.736235 
L 174.137247 84.71224 
L 175.017725 83.927252 
L 175.898203 83.816252 
L 176.778681 82.299924 
L 177.659159 80.460708 
L 178.539637 79.245209 
L 179.420115 79.213794 
L 180.300593 78.997059 
L 181.181071 77.855302 
L 182.061549 77.162531 
L 182.942027 76.990243 
L 184.702983 75.975696 
L 185.583461 75.931276 
L 186.463939 74.775608 
L 187.344417 74.427804 
L 188.224895 73.837461 
L 189.105373 73.698583 
L 189.985851 72.490344 
L 190.866329 72.1898 
L 191.746807 71.623142 
L 192.627285 71.484583 
L 193.507763 70.458638 
L 194.388241 70.361015 
L 195.268719 69.784946 
L 196.149197 69.604554 
L 197.910153 68.994462 
L 198.790631 68.820224 
L 199.671109 68.445059 
L 200.551587 67.889424 
L 201.432065 67.756096 
L 202.312543 66.113061 
L 203.193021 66.079035 
L 204.073499 65.923823 
L 204.953977 65.108254 
L 205.834455 65.001281 
L 206.714933 64.554069 
L 207.595411 64.518655 
L 208.475889 63.994644 
L 210.236845 63.545904 
L 211.117323 63.295139 
L 211.997801 62.713654 
L 216.400191 62.376948 
L 217.280669 61.59207 
L 218.161147 61.311343 
L 219.041625 61.274688 
L 220.802581 60.593104 
L 222.563537 60.195591 
L 223.444015 59.470656 
L 224.324493 59.323569 
L 227.846406 57.340675 
L 229.607362 57.287899 
L 230.48784 56.665669 
L 235.770708 55.501704 
L 237.531664 55.112876 
L 238.412142 53.820891 
L 239.29262 53.624905 
L 240.173098 52.290555 
L 241.053576 51.450277 
L 241.934054 50.901562 
L 242.814532 48.091073 
L 243.69501 46.127356 
L 245.455966 44.82699 
L 246.336444 44.52609 
L 247.216922 44.479736 
L 248.0974 44.239492 
L 250.738834 44.095631 
L 251.619312 43.735417 
L 252.49979 43.655501 
L 253.380268 42.772849 
L 254.260746 42.614145 
L 255.141224 41.894545 
L 256.021702 41.374758 
L 256.90218 41.126672 
L 257.782658 40.431288 
L 258.663136 40.411801 
L 259.543614 39.588496 
L 260.424092 39.584938 
L 261.30457 38.114321 
L 263.065526 36.430898 
L 263.946004 36.166693 
L 264.826482 35.769604 
L 265.70696 35.539456 
L 267.467916 35.426471 
L 268.348394 34.724563 
L 269.228872 34.438595 
L 270.10935 34.279712 
L 270.989828 33.914581 
L 271.870306 33.864572 
L 272.750784 33.48 
L 272.750784 33.48 
" clip-path="url(#p5c615b8b35)" style="fill: none; stroke-dasharray: 7.4,3.2; stroke-dashoffset: 0; stroke: #ff0000; stroke-width: 2"/>
   </g>
   <g id="patch_3">
    <path d="M 135 192.24 
L 135 25.92 
" style="fill: none; stroke: #cccccc; stroke-width: 1.25; stroke-linejoin: miter; stroke-linecap: square"/>
   </g>
   <g id="patch_4">
    <path d="M 279.310345 192.24 
L 279.310345 25.92 
" style="fill: none; stroke: #cccccc; stroke-width: 1.25; stroke-linejoin: miter; stroke-linecap: square"/>
   </g>
   <g id="patch_5">
    <path d="M 135 192.24 
L 279.310345 192.24 
" style="fill: none; stroke: #cccccc; stroke-width: 1.25; stroke-linejoin: miter; stroke-linecap: square"/>
   </g>
   <g id="patch_6">
    <path d="M 135 25.92 
L 279.310345 25.92 
" style="fill: none; stroke: #cccccc; stroke-width: 1.25; stroke-linejoin: miter; stroke-linecap: square"/>
   </g>
   <g id="text_10">
    <!-- # of Cluster:2 , score:0.59 -->
    <g style="fill: #262626" transform="translate(135.350172 19.92) scale(0.12 -0.12)">
     <defs>
      <path id="NanumGothic-23" d="M 2515 2656 
L 1619 2656 
Q 1587 2387 1548 2134 
Q 1510 1882 1478 1619 
L 2368 1619 
L 2515 2656 
z
M 3616 2765 
Q 3616 2682 3603 2669 
Q 3590 2656 3514 2656 
L 2918 2656 
Q 2886 2387 2844 2134 
Q 2803 1882 2771 1619 
L 3315 1619 
Q 3405 1619 3417 1606 
Q 3430 1594 3430 1517 
L 3430 1363 
Q 3430 1280 3417 1267 
Q 3405 1254 3315 1254 
L 2720 1254 
L 2528 -128 
Q 2515 -211 2502 -224 
Q 2490 -237 2413 -237 
L 2227 -237 
Q 2138 -237 2125 -224 
Q 2112 -211 2125 -128 
L 2317 1254 
L 1421 1254 
L 1229 -134 
Q 1216 -211 1200 -224 
Q 1184 -237 1094 -237 
L 922 -237 
Q 832 -237 819 -224 
Q 806 -211 819 -134 
L 1018 1254 
L 410 1254 
Q 333 1254 320 1267 
Q 307 1280 307 1357 
L 307 1517 
Q 307 1594 320 1606 
Q 333 1619 410 1619 
L 1062 1619 
Q 1101 1882 1136 2134 
Q 1171 2387 1210 2656 
L 576 2656 
Q 506 2656 493 2665 
Q 480 2675 480 2746 
L 480 2918 
Q 480 2989 493 3001 
Q 506 3014 576 3014 
L 1261 3014 
L 1453 4410 
Q 1466 4480 1475 4493 
Q 1485 4506 1555 4506 
L 1786 4506 
Q 1856 4506 1865 4496 
Q 1875 4486 1862 4416 
L 1664 3014 
L 2554 3014 
L 2752 4416 
Q 2765 4486 2774 4496 
Q 2784 4506 2848 4506 
L 3085 4506 
Q 3155 4506 3164 4493 
Q 3174 4480 3162 4410 
L 2957 3014 
L 3514 3014 
Q 3590 3014 3603 3001 
Q 3616 2989 3616 2912 
L 3616 2765 
z
" transform="scale(0.015625)"/>
      <path id="NanumGothic-20" transform="scale(0.015625)"/>
      <path id="NanumGothic-6f" d="M 3130 1453 
Q 3130 1754 3050 2016 
Q 2970 2278 2829 2483 
Q 2496 2893 1965 2893 
Q 1696 2893 1481 2787 
Q 1267 2682 1101 2483 
Q 954 2278 874 2016 
Q 794 1754 794 1453 
Q 794 1146 874 883 
Q 954 621 1101 422 
Q 1440 6 1965 6 
Q 2234 6 2448 115 
Q 2662 224 2829 422 
Q 2970 621 3050 883 
Q 3130 1146 3130 1453 
z
M 3603 1453 
Q 3603 1075 3494 752 
Q 3386 429 3206 186 
Q 2982 -83 2672 -230 
Q 2362 -378 1965 -378 
Q 1568 -378 1254 -230 
Q 941 -83 717 186 
Q 538 429 432 752 
Q 326 1075 326 1453 
Q 326 2227 717 2720 
Q 1165 3277 1965 3277 
Q 2368 3277 2675 3139 
Q 2982 3002 3206 2720 
Q 3603 2214 3603 1453 
z
" transform="scale(0.015625)"/>
      <path id="NanumGothic-66" d="M 2144 4870 
Q 2227 4845 2221 4736 
L 2208 4550 
Q 2202 4512 2176 4502 
Q 2150 4493 2118 4506 
Q 2048 4531 1990 4540 
Q 1933 4550 1856 4550 
Q 1478 4550 1370 4173 
Q 1325 4019 1325 3494 
L 1325 3187 
L 2029 3187 
Q 2118 3187 2118 3098 
L 2118 2906 
Q 2118 2816 2029 2816 
L 1325 2816 
L 1325 -186 
Q 1325 -275 1235 -275 
L 986 -275 
Q 896 -275 896 -186 
L 896 2816 
L 275 2816 
Q 186 2816 186 2906 
L 186 3098 
Q 186 3187 275 3187 
L 896 3187 
L 896 3450 
Q 896 4147 1024 4454 
Q 1222 4915 1818 4915 
Q 2003 4915 2144 4870 
z
" transform="scale(0.015625)"/>
      <path id="NanumGothic-43" d="M 3834 186 
Q 3872 198 3904 188 
Q 3936 179 3936 141 
L 3949 -109 
Q 3955 -192 3859 -224 
Q 3648 -294 3424 -326 
Q 3200 -358 2861 -358 
Q 1747 -358 1088 320 
Q 762 653 605 1094 
Q 448 1536 448 2093 
Q 448 3187 1107 3866 
Q 1779 4544 2861 4544 
Q 3014 4544 3139 4537 
Q 3264 4531 3382 4518 
Q 3501 4506 3616 4486 
Q 3731 4467 3859 4435 
Q 3955 4416 3949 4314 
L 3936 4058 
Q 3923 3968 3840 4000 
Q 3590 4083 3366 4112 
Q 3142 4141 2861 4141 
Q 1958 4141 1421 3565 
Q 922 3008 922 2093 
Q 922 1632 1043 1261 
Q 1165 890 1414 614 
Q 1933 38 2861 45 
Q 3130 51 3395 83 
Q 3661 115 3834 186 
z
" transform="scale(0.015625)"/>
      <path id="NanumGothic-6c" d="M 1056 -186 
Q 1056 -275 966 -275 
L 685 -275 
Q 595 -275 595 -186 
L 595 4723 
Q 595 4813 685 4813 
L 966 4813 
Q 1056 4813 1056 4723 
L 1056 -186 
z
" transform="scale(0.015625)"/>
      <path id="NanumGothic-75" d="M 3347 -186 
Q 3347 -275 3258 -275 
L 3027 -275 
Q 2938 -275 2938 -186 
L 2938 346 
Q 2771 -38 2492 -208 
Q 2214 -378 1792 -378 
Q 595 -378 595 960 
L 595 3098 
Q 595 3187 685 3187 
L 941 3187 
Q 1030 3187 1030 3098 
L 1030 1075 
Q 1030 -13 1862 -13 
Q 2106 -13 2301 92 
Q 2496 198 2630 380 
Q 2765 563 2835 806 
Q 2906 1050 2899 1318 
L 2899 3098 
Q 2899 3187 2989 3187 
L 3245 3187 
Q 3334 3187 3334 3098 
L 3334 525 
Q 3334 314 3337 147 
Q 3341 -19 3347 -186 
z
" transform="scale(0.015625)"/>
      <path id="NanumGothic-73" d="M 422 147 
Q 813 -13 1229 -13 
Q 1574 -13 1798 156 
Q 2022 326 2022 614 
Q 2022 781 1897 937 
Q 1773 1094 1594 1197 
Q 1395 1306 1187 1405 
Q 979 1504 787 1613 
Q 557 1741 448 1929 
Q 339 2118 339 2323 
Q 339 2560 428 2739 
Q 518 2918 672 3040 
Q 826 3162 1030 3219 
Q 1235 3277 1466 3277 
Q 1709 3277 1888 3251 
Q 2067 3226 2246 3174 
Q 2285 3162 2313 3136 
Q 2342 3110 2336 3066 
L 2317 2874 
Q 2310 2822 2278 2809 
Q 2246 2797 2214 2810 
Q 2054 2867 1894 2889 
Q 1734 2912 1510 2912 
Q 768 2912 768 2323 
Q 768 2195 867 2080 
Q 966 1965 1203 1850 
Q 1408 1747 1606 1654 
Q 1805 1562 2035 1434 
Q 2234 1325 2365 1101 
Q 2496 877 2496 614 
Q 2496 358 2393 172 
Q 2291 -13 2118 -134 
Q 1946 -256 1722 -317 
Q 1498 -378 1261 -378 
Q 1120 -378 1008 -371 
Q 896 -365 797 -352 
Q 698 -339 595 -320 
Q 493 -301 378 -269 
Q 288 -237 294 -154 
L 320 83 
Q 333 186 422 147 
z
" transform="scale(0.015625)"/>
      <path id="NanumGothic-74" d="M 2208 -282 
Q 1939 -378 1677 -378 
Q 1158 -378 992 -38 
Q 883 192 883 774 
L 883 2816 
L 282 2816 
Q 192 2816 192 2906 
L 192 3098 
Q 192 3187 282 3187 
L 883 3187 
L 883 4051 
Q 883 4147 966 4147 
L 1235 4147 
Q 1318 4147 1318 4051 
L 1318 3187 
L 2029 3187 
Q 2118 3187 2118 3098 
L 2118 2906 
Q 2118 2816 2029 2816 
L 1318 2816 
L 1318 557 
Q 1318 -13 1779 -13 
Q 1958 -13 2182 64 
Q 2214 77 2243 64 
Q 2272 51 2272 13 
L 2285 -154 
Q 2298 -243 2208 -282 
z
" transform="scale(0.015625)"/>
      <path id="NanumGothic-65" d="M 2733 1696 
Q 2733 1958 2681 2163 
Q 2630 2368 2522 2534 
Q 2285 2912 1837 2912 
Q 1376 2912 1088 2528 
Q 973 2355 896 2131 
Q 819 1907 813 1696 
L 2733 1696 
z
M 813 1331 
Q 806 1011 886 764 
Q 966 518 1120 352 
Q 1274 186 1488 96 
Q 1702 6 1965 6 
Q 2221 6 2445 54 
Q 2669 102 2861 211 
Q 2944 250 2944 166 
L 2944 -122 
Q 2944 -179 2874 -211 
Q 2662 -294 2432 -336 
Q 2202 -378 1933 -378 
Q 1146 -378 742 80 
Q 339 538 339 1459 
Q 339 2272 742 2771 
Q 1165 3277 1811 3277 
Q 2170 3277 2432 3149 
Q 2694 3021 2880 2765 
Q 3206 2310 3206 1549 
Q 3206 1466 3203 1421 
Q 3200 1376 3181 1357 
Q 3162 1338 3114 1334 
Q 3066 1331 2976 1331 
L 813 1331 
z
" transform="scale(0.015625)"/>
      <path id="NanumGothic-72" d="M 2221 2797 
Q 2106 2835 1914 2835 
Q 1440 2835 1210 2368 
Q 1030 2003 1030 1434 
L 1030 -186 
Q 1030 -275 941 -275 
L 691 -275 
Q 602 -275 602 -186 
L 602 2413 
Q 602 2643 598 2787 
Q 595 2931 589 3098 
Q 589 3187 678 3187 
L 915 3187 
Q 1005 3187 1005 3098 
L 1005 2470 
Q 1318 3277 1926 3277 
Q 2074 3277 2221 3238 
Q 2259 3226 2288 3197 
Q 2317 3168 2317 3117 
L 2317 2848 
Q 2317 2810 2285 2797 
Q 2253 2784 2221 2797 
z
" transform="scale(0.015625)"/>
      <path id="NanumGothic-3a" d="M 646 3526 
Q 646 3674 755 3782 
Q 864 3891 1011 3891 
Q 1158 3891 1267 3782 
Q 1376 3674 1376 3526 
Q 1376 3379 1267 3270 
Q 1158 3162 1011 3162 
Q 864 3162 755 3270 
Q 646 3379 646 3526 
z
M 646 640 
Q 646 787 755 896 
Q 864 1005 1011 1005 
Q 1158 1005 1267 896 
Q 1376 787 1376 640 
Q 1376 493 1267 384 
Q 1158 275 1011 275 
Q 864 275 755 384 
Q 646 493 646 640 
z
" transform="scale(0.015625)"/>
      <path id="NanumGothic-2c" d="M 1299 115 
Q 1382 115 1382 86 
Q 1382 58 1370 19 
L 947 -1126 
Q 922 -1178 899 -1194 
Q 877 -1210 832 -1210 
L 563 -1210 
Q 480 -1210 499 -1120 
L 800 6 
Q 813 45 838 80 
Q 864 115 934 115 
L 1299 115 
z
" transform="scale(0.015625)"/>
      <path id="NanumGothic-63" d="M 2816 -301 
Q 2624 -333 2445 -345 
Q 2266 -358 2016 -358 
Q 1619 -358 1308 -217 
Q 998 -77 784 166 
Q 570 410 454 742 
Q 339 1075 339 1459 
Q 339 1850 460 2179 
Q 582 2509 809 2749 
Q 1037 2989 1353 3126 
Q 1670 3264 2067 3264 
Q 2278 3264 2451 3248 
Q 2624 3232 2822 3187 
Q 2912 3162 2906 3066 
L 2886 2861 
Q 2874 2784 2790 2803 
Q 2624 2854 2470 2876 
Q 2317 2899 2131 2899 
Q 1805 2899 1558 2793 
Q 1312 2688 1145 2496 
Q 979 2304 896 2038 
Q 813 1773 813 1459 
Q 813 1171 899 908 
Q 986 646 1149 444 
Q 1312 243 1545 124 
Q 1779 6 2080 6 
Q 2304 6 2451 25 
Q 2598 45 2784 96 
Q 2880 122 2886 51 
L 2906 -186 
Q 2912 -282 2816 -301 
z
" transform="scale(0.015625)"/>
      <path id="NanumGothic-39" d="M 2995 2925 
Q 2995 3424 2726 3763 
Q 2432 4128 1946 4128 
Q 1427 4128 1133 3802 
Q 845 3494 845 2982 
Q 845 2438 1107 2138 
L 1101 2138 
Q 1376 1843 1882 1843 
Q 2406 1843 2701 2138 
Q 2995 2445 2995 2925 
z
M 653 -256 
Q 557 -237 570 -109 
L 589 115 
Q 602 192 691 154 
Q 851 90 1014 64 
Q 1178 38 1382 38 
Q 1830 38 2163 214 
Q 2496 390 2707 717 
Q 3027 1254 3040 2080 
Q 2650 1453 1882 1453 
Q 1293 1453 896 1754 
Q 390 2144 390 2950 
Q 390 3661 806 4083 
Q 1229 4525 1958 4525 
Q 3494 4525 3494 2259 
Q 3494 -346 1338 -346 
Q 1043 -346 653 -256 
z
" transform="scale(0.015625)"/>
     </defs>
     <use xlink:href="#NanumGothic-23"/>
     <use xlink:href="#NanumGothic-20" x="60.599991"/>
     <use xlink:href="#NanumGothic-6f" x="88.599976"/>
     <use xlink:href="#NanumGothic-66" x="149.199966"/>
     <use xlink:href="#NanumGothic-20" x="185.499954"/>
     <use xlink:href="#NanumGothic-43" x="213.499939"/>
     <use xlink:href="#NanumGothic-6c" x="280.699936"/>
     <use xlink:href="#NanumGothic-75" x="304.899933"/>
     <use xlink:href="#NanumGothic-73" x="365.499924"/>
     <use xlink:href="#NanumGothic-74" x="407.899918"/>
     <use xlink:href="#NanumGothic-65" x="444.199905"/>
     <use xlink:href="#NanumGothic-72" x="498.69989"/>
     <use xlink:href="#NanumGothic-3a" x="534.999878"/>
     <use xlink:href="#NanumGothic-32" x="565.299866"/>
     <use xlink:href="#NanumGothic-20" x="625.899857"/>
     <use xlink:href="#NanumGothic-2c" x="653.899841"/>
     <use xlink:href="#NanumGothic-20" x="684.199829"/>
     <use xlink:href="#NanumGothic-73" x="712.199814"/>
     <use xlink:href="#NanumGothic-63" x="754.599808"/>
     <use xlink:href="#NanumGothic-6f" x="802.999802"/>
     <use xlink:href="#NanumGothic-72" x="863.599792"/>
     <use xlink:href="#NanumGothic-65" x="899.89978"/>
     <use xlink:href="#NanumGothic-3a" x="954.399765"/>
     <use xlink:href="#NanumGothic-30" x="984.699753"/>
     <use xlink:href="#NanumGothic-2e" x="1045.299744"/>
     <use xlink:href="#NanumGothic-35" x="1075.599731"/>
     <use xlink:href="#NanumGothic-39" x="1136.199722"/>
    </g>
   </g>
  </g>
  <g id="axes_2">
   <g id="patch_7">
    <path d="M 308.172414 192.24 
L 452.482759 192.24 
L 452.482759 25.92 
L 308.172414 25.92 
z
" style="fill: #ffffff"/>
   </g>
   <g id="matplotlib.axis_3">
    <g id="xtick_5">
     <g id="line2d_20">
      <path d="M 314.731975 192.24 
L 314.731975 25.92 
" clip-path="url(#p6ae6c8d1d8)" style="fill: none; stroke: #cccccc; stroke-linecap: round"/>
     </g>
     <g id="line2d_21"/>
     <g id="text_11">
      <!-- 0 -->
      <g style="fill: #262626" transform="translate(311.702287 206.760312) scale(0.1 -0.1)">
       <use xlink:href="#NanumGothic-30"/>
      </g>
     </g>
    </g>
    <g id="xtick_6">
     <g id="line2d_22">
      <path d="M 358.755875 192.24 
L 358.755875 25.92 
" clip-path="url(#p6ae6c8d1d8)" style="fill: none; stroke: #cccccc; stroke-linecap: round"/>
     </g>
     <g id="line2d_23"/>
     <g id="text_12">
      <!-- 50 -->
      <g style="fill: #262626" transform="translate(352.6965 206.760312) scale(0.1 -0.1)">
       <use xlink:href="#NanumGothic-35"/>
       <use xlink:href="#NanumGothic-30" x="60.599991"/>
      </g>
     </g>
    </g>
    <g id="xtick_7">
     <g id="line2d_24">
      <path d="M 402.779775 192.24 
L 402.779775 25.92 
" clip-path="url(#p6ae6c8d1d8)" style="fill: none; stroke: #cccccc; stroke-linecap: round"/>
     </g>
     <g id="line2d_25"/>
     <g id="text_13">
      <!-- 100 -->
      <g style="fill: #262626" transform="translate(393.690713 206.760312) scale(0.1 -0.1)">
       <use xlink:href="#NanumGothic-31"/>
       <use xlink:href="#NanumGothic-30" x="60.599991"/>
       <use xlink:href="#NanumGothic-30" x="121.199982"/>
      </g>
     </g>
    </g>
    <g id="xtick_8">
     <g id="line2d_26">
      <path d="M 446.803675 192.24 
L 446.803675 25.92 
" clip-path="url(#p6ae6c8d1d8)" style="fill: none; stroke: #cccccc; stroke-linecap: round"/>
     </g>
     <g id="line2d_27"/>
     <g id="text_14">
      <!-- 150 -->
      <g style="fill: #262626" transform="translate(437.714613 206.760312) scale(0.1 -0.1)">
       <use xlink:href="#NanumGothic-31"/>
       <use xlink:href="#NanumGothic-35" x="60.599991"/>
       <use xlink:href="#NanumGothic-30" x="121.199982"/>
      </g>
     </g>
    </g>
   </g>
   <g id="matplotlib.axis_4">
    <g id="ytick_6">
     <g id="line2d_28">
      <path d="M 308.172414 172.650079 
L 452.482759 172.650079 
" clip-path="url(#p6ae6c8d1d8)" style="fill: none; stroke: #cccccc; stroke-linecap: round"/>
     </g>
     <g id="line2d_29"/>
    </g>
    <g id="ytick_7">
     <g id="line2d_30">
      <path d="M 308.172414 137.510161 
L 452.482759 137.510161 
" clip-path="url(#p6ae6c8d1d8)" style="fill: none; stroke: #cccccc; stroke-linecap: round"/>
     </g>
     <g id="line2d_31"/>
    </g>
    <g id="ytick_8">
     <g id="line2d_32">
      <path d="M 308.172414 102.370244 
L 452.482759 102.370244 
" clip-path="url(#p6ae6c8d1d8)" style="fill: none; stroke: #cccccc; stroke-linecap: round"/>
     </g>
     <g id="line2d_33"/>
    </g>
    <g id="ytick_9">
     <g id="line2d_34">
      <path d="M 308.172414 67.230327 
L 452.482759 67.230327 
" clip-path="url(#p6ae6c8d1d8)" style="fill: none; stroke: #cccccc; stroke-linecap: round"/>
     </g>
     <g id="line2d_35"/>
    </g>
    <g id="ytick_10">
     <g id="line2d_36">
      <path d="M 308.172414 32.090409 
L 452.482759 32.090409 
" clip-path="url(#p6ae6c8d1d8)" style="fill: none; stroke: #cccccc; stroke-linecap: round"/>
     </g>
     <g id="line2d_37"/>
    </g>
   </g>
   <g id="line2d_38">
    <path d="M 314.731975 178.269123 
L 315.612453 178.269123 
L 316.492931 178.098953 
L 317.373409 174.930068 
L 318.253887 170.919664 
L 320.014843 167.494883 
L 320.895321 160.188906 
L 321.775799 159.201144 
L 322.656277 157.583842 
L 323.536755 157.154233 
L 324.417233 148.776989 
L 325.297711 148.483017 
L 326.178189 148.39602 
L 327.058667 143.74815 
L 327.939145 141.173337 
L 329.700101 140.926164 
L 330.580579 140.238154 
L 332.341535 139.901629 
L 334.102491 139.726008 
L 334.982969 138.217797 
L 335.863447 131.332567 
L 336.743925 130.523197 
L 337.624403 127.357826 
L 338.504881 123.290998 
L 339.385359 122.871739 
L 340.265837 120.805654 
L 341.146315 117.881749 
L 342.026793 107.780416 
L 342.907271 105.647541 
L 343.787749 105.446315 
L 344.668227 105.373313 
L 345.548705 104.708504 
L 346.429183 104.375017 
L 347.309661 102.43653 
L 348.190139 101.872966 
L 349.070617 100.660704 
L 350.831573 99.243791 
L 351.712051 99.18535 
L 352.592529 98.988455 
L 353.473007 98.219882 
L 354.353485 97.944919 
L 355.233963 95.5194 
L 356.114441 95.177442 
L 356.994919 95.164144 
L 357.875397 94.222733 
L 359.636353 94.139776 
L 360.516831 93.635938 
L 361.397309 92.681293 
L 362.277787 92.649276 
L 364.919221 91.966542 
L 366.680177 91.799144 
L 368.441133 90.839694 
L 369.321611 90.036908 
L 370.202089 89.550953 
L 371.082567 87.70653 
L 371.963045 87.155466 
L 373.724001 86.780577 
L 375.484957 85.427974 
L 376.365435 85.089852 
L 377.245913 85.029642 
L 378.126391 84.43391 
L 379.006869 82.17196 
L 379.887347 82.142043 
L 380.767825 81.80789 
L 381.648303 79.546891 
L 382.528781 79.545801 
L 384.289737 78.973357 
L 385.170215 78.717443 
L 386.931171 77.934774 
L 387.811649 77.832444 
L 388.692127 77.272129 
L 389.572605 76.41877 
L 390.453083 76.347977 
L 391.333561 75.506075 
L 392.214039 75.324794 
L 393.094517 74.536668 
L 395.735951 74.197163 
L 398.377385 73.060842 
L 399.257863 72.857924 
L 401.018819 72.763664 
L 401.899297 72.709688 
L 402.779775 72.223232 
L 404.540731 71.653262 
L 405.421209 71.283219 
L 406.301687 71.232889 
L 408.062643 68.546407 
L 408.943121 68.065022 
L 409.823599 66.69432 
L 410.704077 66.13355 
L 411.584555 65.959495 
L 413.345511 63.879541 
L 415.106467 60.521502 
L 415.986945 57.487423 
L 416.867423 56.233405 
L 417.747901 55.781148 
L 419.508857 55.611001 
L 420.389335 55.216676 
L 421.269813 54.091458 
L 422.150291 53.443567 
L 423.030769 51.728898 
L 423.911247 51.6954 
L 424.791725 51.150409 
L 425.672203 51.002866 
L 426.552681 50.720018 
L 427.433159 50.697411 
L 428.313637 50.557442 
L 429.194115 50.11351 
L 430.074593 48.88928 
L 430.955071 48.830977 
L 432.716027 48.11401 
L 433.596505 47.355831 
L 434.476983 46.039109 
L 437.118417 43.536893 
L 437.998895 43.24619 
L 438.879373 42.555861 
L 439.759851 42.433193 
L 443.281763 41.190519 
L 444.162241 40.604397 
L 445.923197 40.442183 
L 445.923197 40.442183 
" clip-path="url(#p6ae6c8d1d8)" style="fill: none; stroke-dasharray: 7.4,3.2; stroke-dashoffset: 0; stroke: #ff0000; stroke-width: 2"/>
   </g>
   <g id="patch_8">
    <path d="M 308.172414 192.24 
L 308.172414 25.92 
" style="fill: none; stroke: #cccccc; stroke-width: 1.25; stroke-linejoin: miter; stroke-linecap: square"/>
   </g>
   <g id="patch_9">
    <path d="M 452.482759 192.24 
L 452.482759 25.92 
" style="fill: none; stroke: #cccccc; stroke-width: 1.25; stroke-linejoin: miter; stroke-linecap: square"/>
   </g>
   <g id="patch_10">
    <path d="M 308.172414 192.24 
L 452.482759 192.24 
" style="fill: none; stroke: #cccccc; stroke-width: 1.25; stroke-linejoin: miter; stroke-linecap: square"/>
   </g>
   <g id="patch_11">
    <path d="M 308.172414 25.92 
L 452.482759 25.92 
" style="fill: none; stroke: #cccccc; stroke-width: 1.25; stroke-linejoin: miter; stroke-linecap: square"/>
   </g>
   <g id="text_15">
    <!-- # of Cluster:3 , score:0.48 -->
    <g style="fill: #262626" transform="translate(308.522586 19.92) scale(0.12 -0.12)">
     <defs>
      <path id="NanumGothic-33" d="M 493 -192 
Q 397 -166 410 -45 
L 435 205 
Q 448 282 538 243 
Q 806 134 1046 89 
Q 1286 45 1606 38 
Q 2112 32 2458 294 
Q 2861 563 2861 1082 
Q 2861 1990 1498 1990 
L 1165 1990 
Q 1082 1990 1082 2061 
L 1082 2298 
Q 1082 2381 1165 2381 
L 1197 2381 
Q 1882 2381 2266 2528 
Q 2848 2752 2848 3334 
Q 2848 3520 2749 3677 
Q 2650 3834 2483 3942 
Q 2330 4032 2138 4083 
Q 1946 4134 1734 4134 
Q 1517 4134 1254 4076 
Q 992 4019 749 3923 
Q 666 3891 653 3974 
L 627 4211 
Q 608 4301 710 4339 
Q 998 4435 1248 4480 
Q 1498 4525 1779 4525 
Q 2426 4525 2835 4250 
Q 3302 3936 3302 3334 
Q 3302 2906 2995 2592 
Q 2739 2317 2330 2189 
Q 2534 2163 2710 2080 
Q 2886 1997 3014 1850 
Q 3162 1690 3238 1488 
Q 3315 1286 3315 1043 
Q 3315 723 3184 464 
Q 3053 205 2810 19 
Q 2573 -154 2265 -253 
Q 1958 -352 1581 -346 
Q 1242 -339 995 -307 
Q 749 -275 493 -192 
z
" transform="scale(0.015625)"/>
     </defs>
     <use xlink:href="#NanumGothic-23"/>
     <use xlink:href="#NanumGothic-20" x="60.599991"/>
     <use xlink:href="#NanumGothic-6f" x="88.599976"/>
     <use xlink:href="#NanumGothic-66" x="149.199966"/>
     <use xlink:href="#NanumGothic-20" x="185.499954"/>
     <use xlink:href="#NanumGothic-43" x="213.499939"/>
     <use xlink:href="#NanumGothic-6c" x="280.699936"/>
     <use xlink:href="#NanumGothic-75" x="304.899933"/>
     <use xlink:href="#NanumGothic-73" x="365.499924"/>
     <use xlink:href="#NanumGothic-74" x="407.899918"/>
     <use xlink:href="#NanumGothic-65" x="444.199905"/>
     <use xlink:href="#NanumGothic-72" x="498.69989"/>
     <use xlink:href="#NanumGothic-3a" x="534.999878"/>
     <use xlink:href="#NanumGothic-33" x="565.299866"/>
     <use xlink:href="#NanumGothic-20" x="625.899857"/>
     <use xlink:href="#NanumGothic-2c" x="653.899841"/>
     <use xlink:href="#NanumGothic-20" x="684.199829"/>
     <use xlink:href="#NanumGothic-73" x="712.199814"/>
     <use xlink:href="#NanumGothic-63" x="754.599808"/>
     <use xlink:href="#NanumGothic-6f" x="802.999802"/>
     <use xlink:href="#NanumGothic-72" x="863.599792"/>
     <use xlink:href="#NanumGothic-65" x="899.89978"/>
     <use xlink:href="#NanumGothic-3a" x="954.399765"/>
     <use xlink:href="#NanumGothic-30" x="984.699753"/>
     <use xlink:href="#NanumGothic-2e" x="1045.299744"/>
     <use xlink:href="#NanumGothic-34" x="1075.599731"/>
     <use xlink:href="#NanumGothic-38" x="1136.199722"/>
    </g>
   </g>
  </g>
  <g id="axes_3">
   <g id="patch_12">
    <path d="M 481.344828 192.24 
L 625.655172 192.24 
L 625.655172 25.92 
L 481.344828 25.92 
z
" style="fill: #ffffff"/>
   </g>
   <g id="matplotlib.axis_5">
    <g id="xtick_9">
     <g id="line2d_39">
      <path d="M 487.904389 192.24 
L 487.904389 25.92 
" clip-path="url(#p12ee374fc5)" style="fill: none; stroke: #cccccc; stroke-linecap: round"/>
     </g>
     <g id="line2d_40"/>
     <g id="text_16">
      <!-- 0 -->
      <g style="fill: #262626" transform="translate(484.874701 206.760312) scale(0.1 -0.1)">
       <use xlink:href="#NanumGothic-30"/>
      </g>
     </g>
    </g>
    <g id="xtick_10">
     <g id="line2d_41">
      <path d="M 531.928289 192.24 
L 531.928289 25.92 
" clip-path="url(#p12ee374fc5)" style="fill: none; stroke: #cccccc; stroke-linecap: round"/>
     </g>
     <g id="line2d_42"/>
     <g id="text_17">
      <!-- 50 -->
      <g style="fill: #262626" transform="translate(525.868914 206.760312) scale(0.1 -0.1)">
       <use xlink:href="#NanumGothic-35"/>
       <use xlink:href="#NanumGothic-30" x="60.599991"/>
      </g>
     </g>
    </g>
    <g id="xtick_11">
     <g id="line2d_43">
      <path d="M 575.952189 192.24 
L 575.952189 25.92 
" clip-path="url(#p12ee374fc5)" style="fill: none; stroke: #cccccc; stroke-linecap: round"/>
     </g>
     <g id="line2d_44"/>
     <g id="text_18">
      <!-- 100 -->
      <g style="fill: #262626" transform="translate(566.863127 206.760312) scale(0.1 -0.1)">
       <use xlink:href="#NanumGothic-31"/>
       <use xlink:href="#NanumGothic-30" x="60.599991"/>
       <use xlink:href="#NanumGothic-30" x="121.199982"/>
      </g>
     </g>
    </g>
    <g id="xtick_12">
     <g id="line2d_45">
      <path d="M 619.976089 192.24 
L 619.976089 25.92 
" clip-path="url(#p12ee374fc5)" style="fill: none; stroke: #cccccc; stroke-linecap: round"/>
     </g>
     <g id="line2d_46"/>
     <g id="text_19">
      <!-- 150 -->
      <g style="fill: #262626" transform="translate(610.887027 206.760312) scale(0.1 -0.1)">
       <use xlink:href="#NanumGothic-31"/>
       <use xlink:href="#NanumGothic-35" x="60.599991"/>
       <use xlink:href="#NanumGothic-30" x="121.199982"/>
      </g>
     </g>
    </g>
   </g>
   <g id="matplotlib.axis_6">
    <g id="ytick_11">
     <g id="line2d_47">
      <path d="M 481.344828 172.650079 
L 625.655172 172.650079 
" clip-path="url(#p12ee374fc5)" style="fill: none; stroke: #cccccc; stroke-linecap: round"/>
     </g>
     <g id="line2d_48"/>
    </g>
    <g id="ytick_12">
     <g id="line2d_49">
      <path d="M 481.344828 137.510161 
L 625.655172 137.510161 
" clip-path="url(#p12ee374fc5)" style="fill: none; stroke: #cccccc; stroke-linecap: round"/>
     </g>
     <g id="line2d_50"/>
    </g>
    <g id="ytick_13">
     <g id="line2d_51">
      <path d="M 481.344828 102.370244 
L 625.655172 102.370244 
" clip-path="url(#p12ee374fc5)" style="fill: none; stroke: #cccccc; stroke-linecap: round"/>
     </g>
     <g id="line2d_52"/>
    </g>
    <g id="ytick_14">
     <g id="line2d_53">
      <path d="M 481.344828 67.230327 
L 625.655172 67.230327 
" clip-path="url(#p12ee374fc5)" style="fill: none; stroke: #cccccc; stroke-linecap: round"/>
     </g>
     <g id="line2d_54"/>
    </g>
    <g id="ytick_15">
     <g id="line2d_55">
      <path d="M 481.344828 32.090409 
L 625.655172 32.090409 
" clip-path="url(#p12ee374fc5)" style="fill: none; stroke: #cccccc; stroke-linecap: round"/>
     </g>
     <g id="line2d_56"/>
    </g>
   </g>
   <g id="line2d_57">
    <path d="M 487.904389 175.623038 
L 488.784867 173.287331 
L 489.665345 169.224015 
L 490.545823 166.757217 
L 491.426301 163.728651 
L 492.306779 162.854292 
L 493.187257 155.219523 
L 494.067735 153.253788 
L 494.948213 153.061515 
L 495.828691 147.664754 
L 496.709169 147.664754 
L 497.589647 147.063297 
L 498.470125 145.65192 
L 499.350603 143.703503 
L 500.231081 143.133516 
L 501.111559 140.445235 
L 501.992037 140.407334 
L 502.872515 139.054155 
L 503.752993 138.631793 
L 504.633471 138.488688 
L 505.513949 137.799862 
L 506.394427 137.65324 
L 507.274905 136.479043 
L 508.155383 135.917446 
L 509.035861 135.001026 
L 509.916339 131.183804 
L 510.796817 129.968959 
L 511.677295 129.923136 
L 512.557773 127.873938 
L 513.438251 126.829988 
L 514.318729 125.980565 
L 515.199207 121.041667 
L 516.079685 119.184689 
L 519.601597 116.105314 
L 521.362553 115.395752 
L 522.243031 114.012786 
L 523.123509 113.750933 
L 524.003987 111.896663 
L 524.884465 111.344358 
L 527.525899 109.288908 
L 528.406377 108.880625 
L 529.286855 107.667454 
L 530.167333 107.602682 
L 531.047811 107.080842 
L 531.928289 106.294882 
L 532.808767 106.165391 
L 533.689245 105.035535 
L 534.569723 104.94354 
L 535.450201 104.631404 
L 536.330679 104.624964 
L 537.211157 103.98162 
L 538.091635 102.442402 
L 538.972113 102.376689 
L 539.852591 101.992762 
L 540.733069 101.954562 
L 541.613547 101.311505 
L 544.254981 100.270775 
L 546.015937 98.706107 
L 546.896415 98.579357 
L 547.776893 97.722919 
L 549.537849 97.413767 
L 550.418327 96.742287 
L 551.298805 95.231762 
L 552.179283 95.181424 
L 553.059761 94.039405 
L 553.940239 93.72119 
L 554.820717 93.129757 
L 556.581673 92.950663 
L 558.342629 91.60416 
L 559.223107 91.149245 
L 560.103585 91.119332 
L 560.984063 90.855576 
L 562.745019 89.848655 
L 563.625497 89.526642 
L 564.505975 89.387892 
L 565.386453 87.739121 
L 567.147409 86.503488 
L 568.027887 85.944486 
L 568.908365 83.151132 
L 569.788843 82.612964 
L 570.669321 80.260071 
L 571.549799 79.799519 
L 572.430277 78.650739 
L 573.310755 78.565058 
L 574.191233 77.916802 
L 575.071711 77.892819 
L 575.952189 76.571098 
L 576.832667 76.366961 
L 577.713145 75.535272 
L 578.593623 74.910733 
L 580.354579 73.973618 
L 581.235057 73.370382 
L 582.115535 72.596987 
L 582.996013 70.991785 
L 583.876491 70.699128 
L 584.756969 70.17589 
L 585.637447 69.952615 
L 586.517925 67.364681 
L 587.398403 65.972326 
L 589.159359 61.807461 
L 590.039837 59.810358 
L 590.920315 59.052483 
L 592.681271 58.931953 
L 593.561749 57.465828 
L 594.442227 54.991985 
L 595.322705 54.661791 
L 596.203183 53.273071 
L 597.083661 53.012734 
L 598.844617 52.832812 
L 599.725095 52.185778 
L 602.366529 51.951444 
L 603.247007 50.802355 
L 604.127485 50.08677 
L 605.007963 49.909094 
L 605.888441 49.287284 
L 606.768919 47.085064 
L 607.649397 45.747419 
L 608.529875 44.865806 
L 609.410353 44.388991 
L 610.290831 43.321556 
L 611.171309 43.179866 
L 612.051787 42.73123 
L 612.932265 42.490224 
L 613.812743 41.834467 
L 614.693221 41.536006 
L 616.454177 41.271659 
L 617.334655 40.401057 
L 618.215133 40.384722 
L 619.095611 40.22701 
L 619.095611 40.22701 
" clip-path="url(#p12ee374fc5)" style="fill: none; stroke-dasharray: 7.4,3.2; stroke-dashoffset: 0; stroke: #ff0000; stroke-width: 2"/>
   </g>
   <g id="patch_13">
    <path d="M 481.344828 192.24 
L 481.344828 25.92 
" style="fill: none; stroke: #cccccc; stroke-width: 1.25; stroke-linejoin: miter; stroke-linecap: square"/>
   </g>
   <g id="patch_14">
    <path d="M 625.655172 192.24 
L 625.655172 25.92 
" style="fill: none; stroke: #cccccc; stroke-width: 1.25; stroke-linejoin: miter; stroke-linecap: square"/>
   </g>
   <g id="patch_15">
    <path d="M 481.344828 192.24 
L 625.655172 192.24 
" style="fill: none; stroke: #cccccc; stroke-width: 1.25; stroke-linejoin: miter; stroke-linecap: square"/>
   </g>
   <g id="patch_16">
    <path d="M 481.344828 25.92 
L 625.655172 25.92 
" style="fill: none; stroke: #cccccc; stroke-width: 1.25; stroke-linejoin: miter; stroke-linecap: square"/>
   </g>
   <g id="text_20">
    <!-- # of Cluster:4 , score:0.45 -->
    <g style="fill: #262626" transform="translate(481.695 19.92) scale(0.12 -0.12)">
     <use xlink:href="#NanumGothic-23"/>
     <use xlink:href="#NanumGothic-20" x="60.599991"/>
     <use xlink:href="#NanumGothic-6f" x="88.599976"/>
     <use xlink:href="#NanumGothic-66" x="149.199966"/>
     <use xlink:href="#NanumGothic-20" x="185.499954"/>
     <use xlink:href="#NanumGothic-43" x="213.499939"/>
     <use xlink:href="#NanumGothic-6c" x="280.699936"/>
     <use xlink:href="#NanumGothic-75" x="304.899933"/>
     <use xlink:href="#NanumGothic-73" x="365.499924"/>
     <use xlink:href="#NanumGothic-74" x="407.899918"/>
     <use xlink:href="#NanumGothic-65" x="444.199905"/>
     <use xlink:href="#NanumGothic-72" x="498.69989"/>
     <use xlink:href="#NanumGothic-3a" x="534.999878"/>
     <use xlink:href="#NanumGothic-34" x="565.299866"/>
     <use xlink:href="#NanumGothic-20" x="625.899857"/>
     <use xlink:href="#NanumGothic-2c" x="653.899841"/>
     <use xlink:href="#NanumGothic-20" x="684.199829"/>
     <use xlink:href="#NanumGothic-73" x="712.199814"/>
     <use xlink:href="#NanumGothic-63" x="754.599808"/>
     <use xlink:href="#NanumGothic-6f" x="802.999802"/>
     <use xlink:href="#NanumGothic-72" x="863.599792"/>
     <use xlink:href="#NanumGothic-65" x="899.89978"/>
     <use xlink:href="#NanumGothic-3a" x="954.399765"/>
     <use xlink:href="#NanumGothic-30" x="984.699753"/>
     <use xlink:href="#NanumGothic-2e" x="1045.299744"/>
     <use xlink:href="#NanumGothic-34" x="1075.599731"/>
     <use xlink:href="#NanumGothic-35" x="1136.199722"/>
    </g>
   </g>
  </g>
  <g id="axes_4">
   <g id="patch_17">
    <path d="M 654.517241 192.24 
L 798.827586 192.24 
L 798.827586 25.92 
L 654.517241 25.92 
z
" style="fill: #ffffff"/>
   </g>
   <g id="matplotlib.axis_7">
    <g id="xtick_13">
     <g id="line2d_58">
      <path d="M 661.076803 192.24 
L 661.076803 25.92 
" clip-path="url(#pdeb9577f43)" style="fill: none; stroke: #cccccc; stroke-linecap: round"/>
     </g>
     <g id="line2d_59"/>
     <g id="text_21">
      <!-- 0 -->
      <g style="fill: #262626" transform="translate(658.047115 206.760312) scale(0.1 -0.1)">
       <use xlink:href="#NanumGothic-30"/>
      </g>
     </g>
    </g>
    <g id="xtick_14">
     <g id="line2d_60">
      <path d="M 705.100703 192.24 
L 705.100703 25.92 
" clip-path="url(#pdeb9577f43)" style="fill: none; stroke: #cccccc; stroke-linecap: round"/>
     </g>
     <g id="line2d_61"/>
     <g id="text_22">
      <!-- 50 -->
      <g style="fill: #262626" transform="translate(699.041328 206.760312) scale(0.1 -0.1)">
       <use xlink:href="#NanumGothic-35"/>
       <use xlink:href="#NanumGothic-30" x="60.599991"/>
      </g>
     </g>
    </g>
    <g id="xtick_15">
     <g id="line2d_62">
      <path d="M 749.124603 192.24 
L 749.124603 25.92 
" clip-path="url(#pdeb9577f43)" style="fill: none; stroke: #cccccc; stroke-linecap: round"/>
     </g>
     <g id="line2d_63"/>
     <g id="text_23">
      <!-- 100 -->
      <g style="fill: #262626" transform="translate(740.03554 206.760312) scale(0.1 -0.1)">
       <use xlink:href="#NanumGothic-31"/>
       <use xlink:href="#NanumGothic-30" x="60.599991"/>
       <use xlink:href="#NanumGothic-30" x="121.199982"/>
      </g>
     </g>
    </g>
    <g id="xtick_16">
     <g id="line2d_64">
      <path d="M 793.148503 192.24 
L 793.148503 25.92 
" clip-path="url(#pdeb9577f43)" style="fill: none; stroke: #cccccc; stroke-linecap: round"/>
     </g>
     <g id="line2d_65"/>
     <g id="text_24">
      <!-- 150 -->
      <g style="fill: #262626" transform="translate(784.059441 206.760312) scale(0.1 -0.1)">
       <use xlink:href="#NanumGothic-31"/>
       <use xlink:href="#NanumGothic-35" x="60.599991"/>
       <use xlink:href="#NanumGothic-30" x="121.199982"/>
      </g>
     </g>
    </g>
   </g>
   <g id="matplotlib.axis_8">
    <g id="ytick_16">
     <g id="line2d_66">
      <path d="M 654.517241 172.650079 
L 798.827586 172.650079 
" clip-path="url(#pdeb9577f43)" style="fill: none; stroke: #cccccc; stroke-linecap: round"/>
     </g>
     <g id="line2d_67"/>
    </g>
    <g id="ytick_17">
     <g id="line2d_68">
      <path d="M 654.517241 137.510161 
L 798.827586 137.510161 
" clip-path="url(#pdeb9577f43)" style="fill: none; stroke: #cccccc; stroke-linecap: round"/>
     </g>
     <g id="line2d_69"/>
    </g>
    <g id="ytick_18">
     <g id="line2d_70">
      <path d="M 654.517241 102.370244 
L 798.827586 102.370244 
" clip-path="url(#pdeb9577f43)" style="fill: none; stroke: #cccccc; stroke-linecap: round"/>
     </g>
     <g id="line2d_71"/>
    </g>
    <g id="ytick_19">
     <g id="line2d_72">
      <path d="M 654.517241 67.230327 
L 798.827586 67.230327 
" clip-path="url(#pdeb9577f43)" style="fill: none; stroke: #cccccc; stroke-linecap: round"/>
     </g>
     <g id="line2d_73"/>
    </g>
    <g id="ytick_20">
     <g id="line2d_74">
      <path d="M 654.517241 32.090409 
L 798.827586 32.090409 
" clip-path="url(#pdeb9577f43)" style="fill: none; stroke: #cccccc; stroke-linecap: round"/>
     </g>
     <g id="line2d_75"/>
    </g>
   </g>
   <g id="line2d_76">
    <path d="M 661.076803 181.316133 
L 661.957281 172.683626 
L 662.837759 171.47381 
L 663.718237 167.626994 
L 664.598715 166.854304 
L 665.479193 163.829793 
L 666.359671 162.450862 
L 667.240149 157.624086 
L 668.120627 157.101272 
L 669.001105 155.853685 
L 669.881583 155.805475 
L 670.762061 153.076133 
L 671.642539 150.872866 
L 672.523017 150.408719 
L 673.403495 149.258196 
L 674.283973 149.258196 
L 675.164451 149.126004 
L 676.044929 148.019824 
L 676.925407 148.003907 
L 678.686363 145.340518 
L 679.566841 143.053289 
L 680.447319 142.038692 
L 681.327797 139.201849 
L 682.208275 138.938713 
L 683.088753 138.507215 
L 685.730187 134.771434 
L 686.610665 131.413246 
L 687.491143 131.390271 
L 688.371621 131.021493 
L 689.252099 130.39825 
L 690.132577 130.191229 
L 691.013055 129.830983 
L 691.893533 129.687923 
L 692.774011 129.406377 
L 694.534967 129.404472 
L 695.415445 129.053908 
L 696.295923 127.021771 
L 697.176401 126.307103 
L 698.056879 125.818952 
L 698.937357 124.6335 
L 699.817835 122.004995 
L 701.578791 120.767207 
L 702.459269 119.808753 
L 703.339747 119.298383 
L 704.220225 119.200081 
L 705.100703 118.958625 
L 705.981181 118.174249 
L 706.861659 118.07229 
L 707.742137 115.386369 
L 708.622615 114.519796 
L 709.503093 114.040768 
L 711.264049 112.719412 
L 713.025005 112.59598 
L 713.905483 111.306518 
L 714.785961 111.300357 
L 715.666439 109.832728 
L 716.546917 109.76374 
L 717.427395 108.977281 
L 718.307873 108.002062 
L 719.188351 107.84866 
L 720.068829 106.700546 
L 720.949307 106.035392 
L 721.829785 105.88542 
L 722.710263 105.467054 
L 723.590741 105.181506 
L 724.471219 104.494385 
L 725.351697 104.33681 
L 726.232175 103.948955 
L 727.112653 103.035886 
L 727.993131 102.489434 
L 730.634565 102.011277 
L 731.515043 101.997107 
L 732.395521 101.151074 
L 733.275999 100.703753 
L 734.156477 100.545817 
L 735.036955 100.525256 
L 735.917433 99.945627 
L 736.797911 98.983663 
L 737.678389 97.578562 
L 738.558867 96.831171 
L 739.439345 96.483734 
L 741.200301 96.389519 
L 742.080779 95.67396 
L 742.961257 95.273885 
L 743.841735 95.2578 
L 744.722213 93.821609 
L 745.602691 92.110835 
L 747.363647 91.534448 
L 748.244125 91.140438 
L 749.124603 90.589912 
L 751.766037 90.15315 
L 752.646515 89.604219 
L 753.526993 89.43679 
L 754.407471 88.869475 
L 755.287949 88.130303 
L 756.168427 86.526946 
L 757.048905 86.031103 
L 758.809861 85.644846 
L 759.690339 84.272666 
L 760.570817 83.610363 
L 761.451295 83.209222 
L 762.331773 83.077642 
L 764.092729 82.295444 
L 764.973207 81.301311 
L 765.853685 81.007425 
L 766.734163 80.304403 
L 767.614641 79.990644 
L 768.495119 79.906559 
L 769.375597 79.333498 
L 770.256075 78.947251 
L 771.136553 78.842068 
L 772.017031 77.872076 
L 772.897509 75.598184 
L 773.777987 75.527679 
L 774.658465 75.03647 
L 775.538943 74.745614 
L 776.419421 74.268204 
L 777.299899 72.853637 
L 778.180377 72.388436 
L 779.941333 72.295598 
L 780.821811 70.082153 
L 781.702289 69.813505 
L 782.582767 69.41215 
L 783.463245 66.195237 
L 786.104679 65.768501 
L 786.985157 64.222881 
L 788.746113 62.190671 
L 789.626591 61.746606 
L 790.507069 61.526745 
L 791.387547 58.967985 
L 792.268025 58.87745 
L 792.268025 58.87745 
" clip-path="url(#pdeb9577f43)" style="fill: none; stroke-dasharray: 7.4,3.2; stroke-dashoffset: 0; stroke: #ff0000; stroke-width: 2"/>
   </g>
   <g id="patch_18">
    <path d="M 654.517241 192.24 
L 654.517241 25.92 
" style="fill: none; stroke: #cccccc; stroke-width: 1.25; stroke-linejoin: miter; stroke-linecap: square"/>
   </g>
   <g id="patch_19">
    <path d="M 798.827586 192.24 
L 798.827586 25.92 
" style="fill: none; stroke: #cccccc; stroke-width: 1.25; stroke-linejoin: miter; stroke-linecap: square"/>
   </g>
   <g id="patch_20">
    <path d="M 654.517241 192.24 
L 798.827586 192.24 
" style="fill: none; stroke: #cccccc; stroke-width: 1.25; stroke-linejoin: miter; stroke-linecap: square"/>
   </g>
   <g id="patch_21">
    <path d="M 654.517241 25.92 
L 798.827586 25.92 
" style="fill: none; stroke: #cccccc; stroke-width: 1.25; stroke-linejoin: miter; stroke-linecap: square"/>
   </g>
   <g id="text_25">
    <!-- # of Cluster:5 , score:0.37 -->
    <g style="fill: #262626" transform="translate(654.867414 19.92) scale(0.12 -0.12)">
     <defs>
      <path id="NanumGothic-37" d="M 1549 -211 
Q 1504 -301 1421 -301 
L 1101 -301 
Q 1062 -301 1046 -275 
Q 1030 -250 1050 -211 
L 2912 4083 
L 538 4083 
Q 448 4083 448 4173 
L 448 4384 
Q 448 4474 538 4474 
L 3194 4474 
Q 3328 4474 3350 4451 
Q 3373 4429 3373 4294 
L 3373 4134 
Q 3373 4083 3354 4045 
L 1549 -211 
z
" transform="scale(0.015625)"/>
     </defs>
     <use xlink:href="#NanumGothic-23"/>
     <use xlink:href="#NanumGothic-20" x="60.599991"/>
     <use xlink:href="#NanumGothic-6f" x="88.599976"/>
     <use xlink:href="#NanumGothic-66" x="149.199966"/>
     <use xlink:href="#NanumGothic-20" x="185.499954"/>
     <use xlink:href="#NanumGothic-43" x="213.499939"/>
     <use xlink:href="#NanumGothic-6c" x="280.699936"/>
     <use xlink:href="#NanumGothic-75" x="304.899933"/>
     <use xlink:href="#NanumGothic-73" x="365.499924"/>
     <use xlink:href="#NanumGothic-74" x="407.899918"/>
     <use xlink:href="#NanumGothic-65" x="444.199905"/>
     <use xlink:href="#NanumGothic-72" x="498.69989"/>
     <use xlink:href="#NanumGothic-3a" x="534.999878"/>
     <use xlink:href="#NanumGothic-35" x="565.299866"/>
     <use xlink:href="#NanumGothic-20" x="625.899857"/>
     <use xlink:href="#NanumGothic-2c" x="653.899841"/>
     <use xlink:href="#NanumGothic-20" x="684.199829"/>
     <use xlink:href="#NanumGothic-73" x="712.199814"/>
     <use xlink:href="#NanumGothic-63" x="754.599808"/>
     <use xlink:href="#NanumGothic-6f" x="802.999802"/>
     <use xlink:href="#NanumGothic-72" x="863.599792"/>
     <use xlink:href="#NanumGothic-65" x="899.89978"/>
     <use xlink:href="#NanumGothic-3a" x="954.399765"/>
     <use xlink:href="#NanumGothic-30" x="984.699753"/>
     <use xlink:href="#NanumGothic-2e" x="1045.299744"/>
     <use xlink:href="#NanumGothic-33" x="1075.599731"/>
     <use xlink:href="#NanumGothic-37" x="1136.199722"/>
    </g>
   </g>
  </g>
  <g id="axes_5">
   <g id="patch_22">
    <path d="M 827.689655 192.24 
L 972 192.24 
L 972 25.92 
L 827.689655 25.92 
z
" style="fill: #ffffff"/>
   </g>
   <g id="matplotlib.axis_9">
    <g id="xtick_17">
     <g id="line2d_77">
      <path d="M 834.249216 192.24 
L 834.249216 25.92 
" clip-path="url(#pd2259b3953)" style="fill: none; stroke: #cccccc; stroke-linecap: round"/>
     </g>
     <g id="line2d_78"/>
     <g id="text_26">
      <!-- 0 -->
      <g style="fill: #262626" transform="translate(831.219529 206.760312) scale(0.1 -0.1)">
       <use xlink:href="#NanumGothic-30"/>
      </g>
     </g>
    </g>
    <g id="xtick_18">
     <g id="line2d_79">
      <path d="M 878.273116 192.24 
L 878.273116 25.92 
" clip-path="url(#pd2259b3953)" style="fill: none; stroke: #cccccc; stroke-linecap: round"/>
     </g>
     <g id="line2d_80"/>
     <g id="text_27">
      <!-- 50 -->
      <g style="fill: #262626" transform="translate(872.213741 206.760312) scale(0.1 -0.1)">
       <use xlink:href="#NanumGothic-35"/>
       <use xlink:href="#NanumGothic-30" x="60.599991"/>
      </g>
     </g>
    </g>
    <g id="xtick_19">
     <g id="line2d_81">
      <path d="M 922.297017 192.24 
L 922.297017 25.92 
" clip-path="url(#pd2259b3953)" style="fill: none; stroke: #cccccc; stroke-linecap: round"/>
     </g>
     <g id="line2d_82"/>
     <g id="text_28">
      <!-- 100 -->
      <g style="fill: #262626" transform="translate(913.207954 206.760312) scale(0.1 -0.1)">
       <use xlink:href="#NanumGothic-31"/>
       <use xlink:href="#NanumGothic-30" x="60.599991"/>
       <use xlink:href="#NanumGothic-30" x="121.199982"/>
      </g>
     </g>
    </g>
    <g id="xtick_20">
     <g id="line2d_83">
      <path d="M 966.320917 192.24 
L 966.320917 25.92 
" clip-path="url(#pd2259b3953)" style="fill: none; stroke: #cccccc; stroke-linecap: round"/>
     </g>
     <g id="line2d_84"/>
     <g id="text_29">
      <!-- 150 -->
      <g style="fill: #262626" transform="translate(957.231854 206.760312) scale(0.1 -0.1)">
       <use xlink:href="#NanumGothic-31"/>
       <use xlink:href="#NanumGothic-35" x="60.599991"/>
       <use xlink:href="#NanumGothic-30" x="121.199982"/>
      </g>
     </g>
    </g>
   </g>
   <g id="matplotlib.axis_10">
    <g id="ytick_21">
     <g id="line2d_85">
      <path d="M 827.689655 172.650079 
L 972 172.650079 
" clip-path="url(#pd2259b3953)" style="fill: none; stroke: #cccccc; stroke-linecap: round"/>
     </g>
     <g id="line2d_86"/>
    </g>
    <g id="ytick_22">
     <g id="line2d_87">
      <path d="M 827.689655 137.510161 
L 972 137.510161 
" clip-path="url(#pd2259b3953)" style="fill: none; stroke: #cccccc; stroke-linecap: round"/>
     </g>
     <g id="line2d_88"/>
    </g>
    <g id="ytick_23">
     <g id="line2d_89">
      <path d="M 827.689655 102.370244 
L 972 102.370244 
" clip-path="url(#pd2259b3953)" style="fill: none; stroke: #cccccc; stroke-linecap: round"/>
     </g>
     <g id="line2d_90"/>
    </g>
    <g id="ytick_24">
     <g id="line2d_91">
      <path d="M 827.689655 67.230327 
L 972 67.230327 
" clip-path="url(#pd2259b3953)" style="fill: none; stroke: #cccccc; stroke-linecap: round"/>
     </g>
     <g id="line2d_92"/>
    </g>
    <g id="ytick_25">
     <g id="line2d_93">
      <path d="M 827.689655 32.090409 
L 972 32.090409 
" clip-path="url(#pd2259b3953)" style="fill: none; stroke: #cccccc; stroke-linecap: round"/>
     </g>
     <g id="line2d_94"/>
    </g>
   </g>
   <g id="line2d_95">
    <path d="M 834.249216 184.68 
L 835.129694 183.291317 
L 836.010172 178.886083 
L 836.89065 176.37838 
L 837.771128 174.39923 
L 838.651606 174.183777 
L 839.532084 170.996476 
L 840.412562 170.962225 
L 841.29304 161.623869 
L 842.173518 156.804479 
L 843.934474 150.013958 
L 844.814952 149.449541 
L 845.69543 149.316767 
L 846.575908 147.615154 
L 847.456386 147.467153 
L 848.336864 145.278259 
L 849.217342 144.68914 
L 850.978298 144.43341 
L 851.858776 143.840333 
L 852.739254 141.970112 
L 853.619732 141.843351 
L 854.50021 140.225098 
L 856.261166 139.267715 
L 857.141644 137.11798 
L 858.022122 133.761484 
L 858.9026 133.547205 
L 859.783078 133.473402 
L 860.663556 132.494703 
L 861.544034 132.477621 
L 863.30499 131.387992 
L 864.185468 131.139752 
L 865.065946 131.135332 
L 865.946424 130.791179 
L 867.70738 129.745961 
L 868.587858 127.738766 
L 869.468336 127.22853 
L 870.348814 125.00284 
L 871.229292 123.747293 
L 872.990248 123.381393 
L 873.870726 122.671509 
L 874.751204 122.38569 
L 875.631682 120.866574 
L 876.51216 120.797136 
L 877.392638 120.342625 
L 878.273116 117.725182 
L 879.153594 117.68779 
L 880.034073 116.699547 
L 880.914551 113.278475 
L 881.795029 111.829208 
L 882.675507 111.551797 
L 883.555985 110.77143 
L 885.316941 110.013379 
L 886.197419 109.531822 
L 887.077897 109.337763 
L 887.958375 108.90557 
L 888.838853 108.63029 
L 889.719331 106.075757 
L 892.360765 104.357377 
L 893.241243 104.267743 
L 894.121721 103.4701 
L 895.002199 102.969317 
L 895.882677 102.810281 
L 896.763155 102.508283 
L 898.524111 101.265014 
L 899.404589 100.386069 
L 901.165545 100.064492 
L 902.046023 99.989521 
L 902.926501 99.723224 
L 903.806979 99.326935 
L 904.687457 98.682833 
L 907.328891 98.155649 
L 908.209369 97.541488 
L 909.089847 96.527538 
L 911.731281 95.785146 
L 912.611759 94.976422 
L 913.492237 94.813815 
L 914.372715 94.127423 
L 916.133671 93.969729 
L 917.014149 92.901384 
L 918.775105 92.49801 
L 919.655583 91.288236 
L 920.536061 90.602112 
L 921.416539 89.243708 
L 922.297017 88.885607 
L 923.177495 88.826164 
L 924.057973 87.716778 
L 924.938451 87.12245 
L 925.818929 87.104169 
L 926.699407 84.653289 
L 927.579885 84.5907 
L 928.460363 84.119824 
L 929.340841 83.909963 
L 930.221319 83.159252 
L 931.101797 83.084098 
L 932.862753 82.005316 
L 933.743231 81.200616 
L 934.623709 80.96384 
L 935.504187 80.027493 
L 936.384665 79.278761 
L 937.265143 78.761316 
L 938.145621 77.921212 
L 941.667533 77.297505 
L 942.548011 76.57252 
L 943.428489 76.57252 
L 944.308967 75.917959 
L 945.189445 75.861992 
L 947.830879 74.976785 
L 949.591835 73.003371 
L 952.233269 72.835099 
L 953.113747 71.946278 
L 953.994225 70.316167 
L 954.874703 69.515085 
L 955.755181 68.542019 
L 956.635659 68.448781 
L 957.516137 67.542343 
L 958.396615 67.038103 
L 960.157571 63.351715 
L 961.038049 63.157482 
L 961.918527 61.931306 
L 962.799005 60.114402 
L 963.679483 59.574913 
L 964.559961 58.88452 
L 965.440439 57.392406 
L 965.440439 57.392406 
" clip-path="url(#pd2259b3953)" style="fill: none; stroke-dasharray: 7.4,3.2; stroke-dashoffset: 0; stroke: #ff0000; stroke-width: 2"/>
   </g>
   <g id="patch_23">
    <path d="M 827.689655 192.24 
L 827.689655 25.92 
" style="fill: none; stroke: #cccccc; stroke-width: 1.25; stroke-linejoin: miter; stroke-linecap: square"/>
   </g>
   <g id="patch_24">
    <path d="M 972 192.24 
L 972 25.92 
" style="fill: none; stroke: #cccccc; stroke-width: 1.25; stroke-linejoin: miter; stroke-linecap: square"/>
   </g>
   <g id="patch_25">
    <path d="M 827.689655 192.24 
L 972 192.24 
" style="fill: none; stroke: #cccccc; stroke-width: 1.25; stroke-linejoin: miter; stroke-linecap: square"/>
   </g>
   <g id="patch_26">
    <path d="M 827.689655 25.92 
L 972 25.92 
" style="fill: none; stroke: #cccccc; stroke-width: 1.25; stroke-linejoin: miter; stroke-linecap: square"/>
   </g>
   <g id="text_30">
    <!-- # of Cluster:6 , score:0.38 -->
    <g style="fill: #262626" transform="translate(828.039828 19.92) scale(0.12 -0.12)">
     <use xlink:href="#NanumGothic-23"/>
     <use xlink:href="#NanumGothic-20" x="60.599991"/>
     <use xlink:href="#NanumGothic-6f" x="88.599976"/>
     <use xlink:href="#NanumGothic-66" x="149.199966"/>
     <use xlink:href="#NanumGothic-20" x="185.499954"/>
     <use xlink:href="#NanumGothic-43" x="213.499939"/>
     <use xlink:href="#NanumGothic-6c" x="280.699936"/>
     <use xlink:href="#NanumGothic-75" x="304.899933"/>
     <use xlink:href="#NanumGothic-73" x="365.499924"/>
     <use xlink:href="#NanumGothic-74" x="407.899918"/>
     <use xlink:href="#NanumGothic-65" x="444.199905"/>
     <use xlink:href="#NanumGothic-72" x="498.69989"/>
     <use xlink:href="#NanumGothic-3a" x="534.999878"/>
     <use xlink:href="#NanumGothic-36" x="565.299866"/>
     <use xlink:href="#NanumGothic-20" x="625.899857"/>
     <use xlink:href="#NanumGothic-2c" x="653.899841"/>
     <use xlink:href="#NanumGothic-20" x="684.199829"/>
     <use xlink:href="#NanumGothic-73" x="712.199814"/>
     <use xlink:href="#NanumGothic-63" x="754.599808"/>
     <use xlink:href="#NanumGothic-6f" x="802.999802"/>
     <use xlink:href="#NanumGothic-72" x="863.599792"/>
     <use xlink:href="#NanumGothic-65" x="899.89978"/>
     <use xlink:href="#NanumGothic-3a" x="954.399765"/>
     <use xlink:href="#NanumGothic-30" x="984.699753"/>
     <use xlink:href="#NanumGothic-2e" x="1045.299744"/>
     <use xlink:href="#NanumGothic-33" x="1075.599731"/>
     <use xlink:href="#NanumGothic-38" x="1136.199722"/>
    </g>
   </g>
  </g>
 </g>
 <defs>
  <clipPath id="p5c615b8b35">
   <rect x="135" y="25.92" width="144.310345" height="166.32"/>
  </clipPath>
  <clipPath id="p6ae6c8d1d8">
   <rect x="308.172414" y="25.92" width="144.310345" height="166.32"/>
  </clipPath>
  <clipPath id="p12ee374fc5">
   <rect x="481.344828" y="25.92" width="144.310345" height="166.32"/>
  </clipPath>
  <clipPath id="pdeb9577f43">
   <rect x="654.517241" y="25.92" width="144.310345" height="166.32"/>
  </clipPath>
  <clipPath id="pd2259b3953">
   <rect x="827.689655" y="25.92" width="144.310345" height="166.32"/>
  </clipPath>
 </defs>
</svg>
