<?xml version="1.0" encoding="utf-8" standalone="no"?>
<!DOCTYPE svg PUBLIC "-//W3C//DTD SVG 1.1//EN"
  "http://www.w3.org/Graphics/SVG/1.1/DTD/svg11.dtd">
<svg xmlns:xlink="http://www.w3.org/1999/xlink" width="1080pt" height="216pt" viewBox="0 0 1080 216" xmlns="http://www.w3.org/2000/svg" version="1.1">
 <metadata>
  <rdf:RDF xmlns:dc="http://purl.org/dc/elements/1.1/" xmlns:cc="http://creativecommons.org/ns#" xmlns:rdf="http://www.w3.org/1999/02/22-rdf-syntax-ns#">
   <cc:Work>
    <dc:type rdf:resource="http://purl.org/dc/dcmitype/StillImage"/>
    <dc:date>2024-11-02T11:31:50.930176</dc:date>
    <dc:format>image/svg+xml</dc:format>
    <dc:creator>
     <cc:Agent>
      <dc:title>Matplotlib v3.7.0, https://matplotlib.org/</dc:title>
     </cc:Agent>
    </dc:creator>
   </cc:Work>
  </rdf:RDF>
 </metadata>
 <defs>
  <style type="text/css">*{stroke-linejoin: round; stroke-linecap: butt}</style>
 </defs>
 <g id="figure_1">
  <g id="patch_1">
   <path d="M 0 216 
L 1080 216 
L 1080 0 
L 0 0 
z
" style="fill: #ffffff"/>
  </g>
  <g id="axes_1">
   <g id="patch_2">
    <path d="M 135 192.24 
L 279.310345 192.24 
L 279.310345 25.92 
L 135 25.92 
z
" style="fill: #ffffff"/>
   </g>
   <g id="matplotlib.axis_1">
    <g id="xtick_1">
     <g id="line2d_1">
      <path d="M 141.559561 192.24 
L 141.559561 25.92 
" clip-path="url(#p75f3c9add1)" style="fill: none; stroke: #cccccc; stroke-linecap: round"/>
     </g>
     <g id="line2d_2"/>
     <g id="text_1">
      <!-- 0 -->
      <g style="fill: #262626" transform="translate(138.529874 206.760312) scale(0.1 -0.1)">
       <defs>
        <path id="NanumGothic-30" d="M 3066 2093 
Q 3066 4102 1965 4102 
Q 864 4102 864 2093 
Q 864 77 1965 77 
Q 3066 77 3066 2093 
z
M 3526 2093 
Q 3526 -326 1965 -326 
Q 390 -326 390 2093 
Q 390 3098 698 3725 
Q 1088 4512 1965 4512 
Q 2829 4512 3226 3725 
Q 3373 3411 3449 3008 
Q 3526 2605 3526 2093 
z
" transform="scale(0.015625)"/>
       </defs>
       <use xlink:href="#NanumGothic-30"/>
      </g>
     </g>
    </g>
    <g id="xtick_2">
     <g id="line2d_3">
      <path d="M 186.797914 192.24 
L 186.797914 25.92 
" clip-path="url(#p75f3c9add1)" style="fill: none; stroke: #cccccc; stroke-linecap: round"/>
     </g>
     <g id="line2d_4"/>
     <g id="text_2">
      <!-- 10 -->
      <g style="fill: #262626" transform="translate(180.738539 206.760312) scale(0.1 -0.1)">
       <defs>
        <path id="NanumGothic-31" d="M 2362 -211 
Q 2362 -301 2272 -301 
L 2010 -301 
Q 1920 -301 1920 -211 
L 1920 3949 
Q 1722 3782 1549 3635 
Q 1376 3488 1184 3322 
Q 1114 3264 1056 3334 
L 928 3488 
Q 909 3520 909 3555 
Q 909 3590 941 3616 
L 1933 4448 
Q 1958 4474 2010 4474 
L 2182 4474 
Q 2317 4474 2339 4451 
Q 2362 4429 2362 4294 
L 2362 -211 
z
" transform="scale(0.015625)"/>
       </defs>
       <use xlink:href="#NanumGothic-31"/>
       <use xlink:href="#NanumGothic-30" x="60.599991"/>
      </g>
     </g>
    </g>
    <g id="xtick_3">
     <g id="line2d_5">
      <path d="M 232.036266 192.24 
L 232.036266 25.92 
" clip-path="url(#p75f3c9add1)" style="fill: none; stroke: #cccccc; stroke-linecap: round"/>
     </g>
     <g id="line2d_6"/>
     <g id="text_3">
      <!-- 20 -->
      <g style="fill: #262626" transform="translate(225.976891 206.760312) scale(0.1 -0.1)">
       <defs>
        <path id="NanumGothic-32" d="M 576 -301 
Q 506 -301 470 -297 
Q 435 -294 419 -278 
Q 403 -262 400 -227 
Q 397 -192 397 -122 
L 403 19 
Q 403 102 454 154 
L 1510 1318 
Q 2688 2592 2688 3251 
Q 2688 3635 2432 3891 
Q 2182 4141 1811 4141 
Q 1293 4141 730 3853 
Q 640 3808 627 3891 
L 589 4102 
Q 570 4211 653 4237 
Q 979 4384 1241 4454 
Q 1504 4525 1779 4525 
Q 2394 4525 2758 4218 
Q 3168 3885 3168 3270 
Q 3168 3034 3053 2752 
Q 2938 2470 2733 2163 
Q 2605 1984 2371 1696 
Q 2138 1408 1837 1082 
Q 1613 838 1392 588 
Q 1171 339 947 96 
L 3187 96 
Q 3277 96 3277 6 
L 3277 -211 
Q 3277 -301 3187 -301 
L 576 -301 
z
" transform="scale(0.015625)"/>
       </defs>
       <use xlink:href="#NanumGothic-32"/>
       <use xlink:href="#NanumGothic-30" x="60.599991"/>
      </g>
     </g>
    </g>
    <g id="xtick_4">
     <g id="line2d_7">
      <path d="M 277.274619 192.24 
L 277.274619 25.92 
" clip-path="url(#p75f3c9add1)" style="fill: none; stroke: #cccccc; stroke-linecap: round"/>
     </g>
     <g id="line2d_8"/>
     <g id="text_4">
      <!-- 30 -->
      <g style="fill: #262626" transform="translate(271.215244 206.760312) scale(0.1 -0.1)">
       <defs>
        <path id="NanumGothic-33" d="M 493 -192 
Q 397 -166 410 -45 
L 435 205 
Q 448 282 538 243 
Q 806 134 1046 89 
Q 1286 45 1606 38 
Q 2112 32 2458 294 
Q 2861 563 2861 1082 
Q 2861 1990 1498 1990 
L 1165 1990 
Q 1082 1990 1082 2061 
L 1082 2298 
Q 1082 2381 1165 2381 
L 1197 2381 
Q 1882 2381 2266 2528 
Q 2848 2752 2848 3334 
Q 2848 3520 2749 3677 
Q 2650 3834 2483 3942 
Q 2330 4032 2138 4083 
Q 1946 4134 1734 4134 
Q 1517 4134 1254 4076 
Q 992 4019 749 3923 
Q 666 3891 653 3974 
L 627 4211 
Q 608 4301 710 4339 
Q 998 4435 1248 4480 
Q 1498 4525 1779 4525 
Q 2426 4525 2835 4250 
Q 3302 3936 3302 3334 
Q 3302 2906 2995 2592 
Q 2739 2317 2330 2189 
Q 2534 2163 2710 2080 
Q 2886 1997 3014 1850 
Q 3162 1690 3238 1488 
Q 3315 1286 3315 1043 
Q 3315 723 3184 464 
Q 3053 205 2810 19 
Q 2573 -154 2265 -253 
Q 1958 -352 1581 -346 
Q 1242 -339 995 -307 
Q 749 -275 493 -192 
z
" transform="scale(0.015625)"/>
       </defs>
       <use xlink:href="#NanumGothic-33"/>
       <use xlink:href="#NanumGothic-30" x="60.599991"/>
      </g>
     </g>
    </g>
   </g>
   <g id="matplotlib.axis_2">
    <g id="ytick_1">
     <g id="line2d_9">
      <path d="M 135 181.68889 
L 279.310345 181.68889 
" clip-path="url(#p75f3c9add1)" style="fill: none; stroke: #cccccc; stroke-linecap: round"/>
     </g>
     <g id="line2d_10"/>
     <g id="text_5">
      <!-- -0.2 -->
      <g style="fill: #262626" transform="translate(109.221875 185.449046) scale(0.1 -0.1)">
       <defs>
        <path id="NanumGothic-2d" d="M 1946 2419 
Q 2016 2419 2025 2409 
Q 2035 2400 2035 2330 
L 2035 2048 
Q 2035 1978 2025 1968 
Q 2016 1958 1946 1958 
L 448 1958 
Q 378 1958 368 1968 
Q 358 1978 358 2048 
L 358 2330 
Q 358 2400 368 2409 
Q 378 2419 448 2419 
L 1946 2419 
z
" transform="scale(0.015625)"/>
        <path id="NanumGothic-2e" d="M 691 -256 
Q 691 -122 784 -29 
Q 877 64 1011 64 
Q 1146 64 1238 -29 
Q 1331 -122 1331 -256 
Q 1331 -390 1238 -483 
Q 1146 -576 1011 -576 
Q 877 -576 784 -483 
Q 691 -390 691 -256 
z
" transform="scale(0.015625)"/>
       </defs>
       <use xlink:href="#NanumGothic-2d"/>
       <use xlink:href="#NanumGothic-30" x="36.299988"/>
       <use xlink:href="#NanumGothic-2e" x="96.899979"/>
       <use xlink:href="#NanumGothic-32" x="127.199966"/>
      </g>
     </g>
    </g>
    <g id="ytick_2">
     <g id="line2d_11">
      <path d="M 135 160.437771 
L 279.310345 160.437771 
" clip-path="url(#p75f3c9add1)" style="fill: none; stroke: #cccccc; stroke-linecap: round"/>
     </g>
     <g id="line2d_12"/>
     <g id="text_6">
      <!-- -0.1 -->
      <g style="fill: #262626" transform="translate(109.221875 164.197927) scale(0.1 -0.1)">
       <use xlink:href="#NanumGothic-2d"/>
       <use xlink:href="#NanumGothic-30" x="36.299988"/>
       <use xlink:href="#NanumGothic-2e" x="96.899979"/>
       <use xlink:href="#NanumGothic-31" x="127.199966"/>
      </g>
     </g>
    </g>
    <g id="ytick_3">
     <g id="line2d_13">
      <path d="M 135 139.186652 
L 279.310345 139.186652 
" clip-path="url(#p75f3c9add1)" style="fill: none; stroke: #cccccc; stroke-linecap: round"/>
     </g>
     <g id="line2d_14"/>
     <g id="text_7">
      <!-- 0.0 -->
      <g style="fill: #262626" transform="translate(112.851562 142.946808) scale(0.1 -0.1)">
       <use xlink:href="#NanumGothic-30"/>
       <use xlink:href="#NanumGothic-2e" x="60.599991"/>
       <use xlink:href="#NanumGothic-30" x="90.899979"/>
      </g>
     </g>
    </g>
    <g id="ytick_4">
     <g id="line2d_15">
      <path d="M 135 117.935532 
L 279.310345 117.935532 
" clip-path="url(#p75f3c9add1)" style="fill: none; stroke: #cccccc; stroke-linecap: round"/>
     </g>
     <g id="line2d_16"/>
     <g id="text_8">
      <!-- 0.1 -->
      <g style="fill: #262626" transform="translate(112.851562 121.695689) scale(0.1 -0.1)">
       <use xlink:href="#NanumGothic-30"/>
       <use xlink:href="#NanumGothic-2e" x="60.599991"/>
       <use xlink:href="#NanumGothic-31" x="90.899979"/>
      </g>
     </g>
    </g>
    <g id="ytick_5">
     <g id="line2d_17">
      <path d="M 135 96.684413 
L 279.310345 96.684413 
" clip-path="url(#p75f3c9add1)" style="fill: none; stroke: #cccccc; stroke-linecap: round"/>
     </g>
     <g id="line2d_18"/>
     <g id="text_9">
      <!-- 0.2 -->
      <g style="fill: #262626" transform="translate(112.851562 100.44457) scale(0.1 -0.1)">
       <use xlink:href="#NanumGothic-30"/>
       <use xlink:href="#NanumGothic-2e" x="60.599991"/>
       <use xlink:href="#NanumGothic-32" x="90.899979"/>
      </g>
     </g>
    </g>
    <g id="ytick_6">
     <g id="line2d_19">
      <path d="M 135 75.433294 
L 279.310345 75.433294 
" clip-path="url(#p75f3c9add1)" style="fill: none; stroke: #cccccc; stroke-linecap: round"/>
     </g>
     <g id="line2d_20"/>
     <g id="text_10">
      <!-- 0.3 -->
      <g style="fill: #262626" transform="translate(112.851562 79.19345) scale(0.1 -0.1)">
       <use xlink:href="#NanumGothic-30"/>
       <use xlink:href="#NanumGothic-2e" x="60.599991"/>
       <use xlink:href="#NanumGothic-33" x="90.899979"/>
      </g>
     </g>
    </g>
    <g id="ytick_7">
     <g id="line2d_21">
      <path d="M 135 54.182175 
L 279.310345 54.182175 
" clip-path="url(#p75f3c9add1)" style="fill: none; stroke: #cccccc; stroke-linecap: round"/>
     </g>
     <g id="line2d_22"/>
     <g id="text_11">
      <!-- 0.4 -->
      <g style="fill: #262626" transform="translate(112.851562 57.942331) scale(0.1 -0.1)">
       <defs>
        <path id="NanumGothic-34" d="M 2509 1216 
L 2509 4070 
Q 2035 3354 1568 2643 
Q 1101 1933 621 1216 
L 2509 1216 
z
M 2944 -211 
Q 2944 -301 2854 -301 
L 2598 -301 
Q 2509 -301 2509 -211 
L 2509 826 
L 397 826 
Q 262 826 240 848 
Q 218 870 218 1005 
L 218 1203 
Q 218 1261 224 1280 
Q 230 1299 262 1350 
L 2304 4397 
Q 2342 4454 2358 4464 
Q 2374 4474 2445 4474 
L 2765 4474 
Q 2899 4474 2921 4451 
Q 2944 4429 2944 4294 
L 2944 1216 
L 3578 1216 
Q 3667 1216 3667 1126 
L 3667 915 
Q 3667 826 3578 826 
L 2944 826 
L 2944 -211 
z
" transform="scale(0.015625)"/>
       </defs>
       <use xlink:href="#NanumGothic-30"/>
       <use xlink:href="#NanumGothic-2e" x="60.599991"/>
       <use xlink:href="#NanumGothic-34" x="90.899979"/>
      </g>
     </g>
    </g>
    <g id="ytick_8">
     <g id="line2d_23">
      <path d="M 135 32.931056 
L 279.310345 32.931056 
" clip-path="url(#p75f3c9add1)" style="fill: none; stroke: #cccccc; stroke-linecap: round"/>
     </g>
     <g id="line2d_24"/>
     <g id="text_12">
      <!-- 0.5 -->
      <g style="fill: #262626" transform="translate(112.851562 36.691212) scale(0.1 -0.1)">
       <defs>
        <path id="NanumGothic-35" d="M 736 -205 
Q 646 -173 646 -90 
L 646 179 
Q 646 288 736 243 
Q 966 134 1187 89 
Q 1408 45 1670 45 
Q 2234 45 2586 320 
Q 2970 614 2970 1165 
Q 2970 2246 1734 2246 
Q 1491 2246 1296 2220 
Q 1101 2195 864 2131 
Q 794 2112 749 2147 
Q 704 2182 704 2253 
L 742 4294 
Q 742 4429 764 4451 
Q 787 4474 922 4474 
L 3110 4474 
Q 3200 4474 3200 4384 
L 3200 4173 
Q 3200 4083 3110 4083 
L 1178 4083 
Q 1171 3680 1161 3296 
Q 1152 2912 1146 2509 
Q 1459 2630 1907 2630 
Q 2579 2630 2995 2266 
Q 3411 1888 3411 1254 
Q 3411 480 2931 58 
Q 2470 -346 1670 -346 
Q 1382 -346 1171 -314 
Q 960 -282 736 -205 
z
" transform="scale(0.015625)"/>
       </defs>
       <use xlink:href="#NanumGothic-30"/>
       <use xlink:href="#NanumGothic-2e" x="60.599991"/>
       <use xlink:href="#NanumGothic-35" x="90.899979"/>
      </g>
     </g>
    </g>
   </g>
   <g id="line2d_25">
    <path d="M 141.559561 150.771416 
L 146.083396 146.681437 
L 150.607232 145.354758 
L 155.131067 125.205659 
L 159.654902 124.500113 
L 164.178737 123.31139 
L 168.702573 113.403798 
L 173.226408 108.866048 
L 177.750243 98.184212 
L 182.274078 89.037528 
L 186.797914 89.014708 
L 191.321749 77.146754 
L 195.845584 74.537562 
L 200.36942 73.626345 
L 204.893255 66.936284 
L 209.41709 65.658781 
L 213.940925 63.869691 
L 218.464761 62.030629 
L 222.988596 59.384637 
L 227.512431 56.836342 
L 232.036266 55.212207 
L 236.560102 51.907981 
L 241.083937 51.350364 
L 245.607772 49.578794 
L 250.131607 46.128016 
L 254.655443 45.735655 
L 259.179278 45.373505 
L 263.703113 45.153227 
L 268.226948 44.306556 
L 272.750784 43.294217 
" clip-path="url(#p75f3c9add1)" style="fill: none; stroke-dasharray: 7.4,3.2; stroke-dashoffset: 0; stroke: #ff0000; stroke-width: 2"/>
   </g>
   <g id="patch_3">
    <path d="M 135 192.24 
L 135 25.92 
" style="fill: none; stroke: #cccccc; stroke-width: 1.25; stroke-linejoin: miter; stroke-linecap: square"/>
   </g>
   <g id="patch_4">
    <path d="M 279.310345 192.24 
L 279.310345 25.92 
" style="fill: none; stroke: #cccccc; stroke-width: 1.25; stroke-linejoin: miter; stroke-linecap: square"/>
   </g>
   <g id="patch_5">
    <path d="M 135 192.24 
L 279.310345 192.24 
" style="fill: none; stroke: #cccccc; stroke-width: 1.25; stroke-linejoin: miter; stroke-linecap: square"/>
   </g>
   <g id="patch_6">
    <path d="M 135 25.92 
L 279.310345 25.92 
" style="fill: none; stroke: #cccccc; stroke-width: 1.25; stroke-linejoin: miter; stroke-linecap: square"/>
   </g>
   <g id="text_13">
    <!-- # of Cluster:2 , score:0.28 -->
    <g style="fill: #262626" transform="translate(135.350172 19.92) scale(0.12 -0.12)">
     <defs>
      <path id="NanumGothic-23" d="M 2515 2656 
L 1619 2656 
Q 1587 2387 1548 2134 
Q 1510 1882 1478 1619 
L 2368 1619 
L 2515 2656 
z
M 3616 2765 
Q 3616 2682 3603 2669 
Q 3590 2656 3514 2656 
L 2918 2656 
Q 2886 2387 2844 2134 
Q 2803 1882 2771 1619 
L 3315 1619 
Q 3405 1619 3417 1606 
Q 3430 1594 3430 1517 
L 3430 1363 
Q 3430 1280 3417 1267 
Q 3405 1254 3315 1254 
L 2720 1254 
L 2528 -128 
Q 2515 -211 2502 -224 
Q 2490 -237 2413 -237 
L 2227 -237 
Q 2138 -237 2125 -224 
Q 2112 -211 2125 -128 
L 2317 1254 
L 1421 1254 
L 1229 -134 
Q 1216 -211 1200 -224 
Q 1184 -237 1094 -237 
L 922 -237 
Q 832 -237 819 -224 
Q 806 -211 819 -134 
L 1018 1254 
L 410 1254 
Q 333 1254 320 1267 
Q 307 1280 307 1357 
L 307 1517 
Q 307 1594 320 1606 
Q 333 1619 410 1619 
L 1062 1619 
Q 1101 1882 1136 2134 
Q 1171 2387 1210 2656 
L 576 2656 
Q 506 2656 493 2665 
Q 480 2675 480 2746 
L 480 2918 
Q 480 2989 493 3001 
Q 506 3014 576 3014 
L 1261 3014 
L 1453 4410 
Q 1466 4480 1475 4493 
Q 1485 4506 1555 4506 
L 1786 4506 
Q 1856 4506 1865 4496 
Q 1875 4486 1862 4416 
L 1664 3014 
L 2554 3014 
L 2752 4416 
Q 2765 4486 2774 4496 
Q 2784 4506 2848 4506 
L 3085 4506 
Q 3155 4506 3164 4493 
Q 3174 4480 3162 4410 
L 2957 3014 
L 3514 3014 
Q 3590 3014 3603 3001 
Q 3616 2989 3616 2912 
L 3616 2765 
z
" transform="scale(0.015625)"/>
      <path id="NanumGothic-20" transform="scale(0.015625)"/>
      <path id="NanumGothic-6f" d="M 3130 1453 
Q 3130 1754 3050 2016 
Q 2970 2278 2829 2483 
Q 2496 2893 1965 2893 
Q 1696 2893 1481 2787 
Q 1267 2682 1101 2483 
Q 954 2278 874 2016 
Q 794 1754 794 1453 
Q 794 1146 874 883 
Q 954 621 1101 422 
Q 1440 6 1965 6 
Q 2234 6 2448 115 
Q 2662 224 2829 422 
Q 2970 621 3050 883 
Q 3130 1146 3130 1453 
z
M 3603 1453 
Q 3603 1075 3494 752 
Q 3386 429 3206 186 
Q 2982 -83 2672 -230 
Q 2362 -378 1965 -378 
Q 1568 -378 1254 -230 
Q 941 -83 717 186 
Q 538 429 432 752 
Q 326 1075 326 1453 
Q 326 2227 717 2720 
Q 1165 3277 1965 3277 
Q 2368 3277 2675 3139 
Q 2982 3002 3206 2720 
Q 3603 2214 3603 1453 
z
" transform="scale(0.015625)"/>
      <path id="NanumGothic-66" d="M 2144 4870 
Q 2227 4845 2221 4736 
L 2208 4550 
Q 2202 4512 2176 4502 
Q 2150 4493 2118 4506 
Q 2048 4531 1990 4540 
Q 1933 4550 1856 4550 
Q 1478 4550 1370 4173 
Q 1325 4019 1325 3494 
L 1325 3187 
L 2029 3187 
Q 2118 3187 2118 3098 
L 2118 2906 
Q 2118 2816 2029 2816 
L 1325 2816 
L 1325 -186 
Q 1325 -275 1235 -275 
L 986 -275 
Q 896 -275 896 -186 
L 896 2816 
L 275 2816 
Q 186 2816 186 2906 
L 186 3098 
Q 186 3187 275 3187 
L 896 3187 
L 896 3450 
Q 896 4147 1024 4454 
Q 1222 4915 1818 4915 
Q 2003 4915 2144 4870 
z
" transform="scale(0.015625)"/>
      <path id="NanumGothic-43" d="M 3834 186 
Q 3872 198 3904 188 
Q 3936 179 3936 141 
L 3949 -109 
Q 3955 -192 3859 -224 
Q 3648 -294 3424 -326 
Q 3200 -358 2861 -358 
Q 1747 -358 1088 320 
Q 762 653 605 1094 
Q 448 1536 448 2093 
Q 448 3187 1107 3866 
Q 1779 4544 2861 4544 
Q 3014 4544 3139 4537 
Q 3264 4531 3382 4518 
Q 3501 4506 3616 4486 
Q 3731 4467 3859 4435 
Q 3955 4416 3949 4314 
L 3936 4058 
Q 3923 3968 3840 4000 
Q 3590 4083 3366 4112 
Q 3142 4141 2861 4141 
Q 1958 4141 1421 3565 
Q 922 3008 922 2093 
Q 922 1632 1043 1261 
Q 1165 890 1414 614 
Q 1933 38 2861 45 
Q 3130 51 3395 83 
Q 3661 115 3834 186 
z
" transform="scale(0.015625)"/>
      <path id="NanumGothic-6c" d="M 1056 -186 
Q 1056 -275 966 -275 
L 685 -275 
Q 595 -275 595 -186 
L 595 4723 
Q 595 4813 685 4813 
L 966 4813 
Q 1056 4813 1056 4723 
L 1056 -186 
z
" transform="scale(0.015625)"/>
      <path id="NanumGothic-75" d="M 3347 -186 
Q 3347 -275 3258 -275 
L 3027 -275 
Q 2938 -275 2938 -186 
L 2938 346 
Q 2771 -38 2492 -208 
Q 2214 -378 1792 -378 
Q 595 -378 595 960 
L 595 3098 
Q 595 3187 685 3187 
L 941 3187 
Q 1030 3187 1030 3098 
L 1030 1075 
Q 1030 -13 1862 -13 
Q 2106 -13 2301 92 
Q 2496 198 2630 380 
Q 2765 563 2835 806 
Q 2906 1050 2899 1318 
L 2899 3098 
Q 2899 3187 2989 3187 
L 3245 3187 
Q 3334 3187 3334 3098 
L 3334 525 
Q 3334 314 3337 147 
Q 3341 -19 3347 -186 
z
" transform="scale(0.015625)"/>
      <path id="NanumGothic-73" d="M 422 147 
Q 813 -13 1229 -13 
Q 1574 -13 1798 156 
Q 2022 326 2022 614 
Q 2022 781 1897 937 
Q 1773 1094 1594 1197 
Q 1395 1306 1187 1405 
Q 979 1504 787 1613 
Q 557 1741 448 1929 
Q 339 2118 339 2323 
Q 339 2560 428 2739 
Q 518 2918 672 3040 
Q 826 3162 1030 3219 
Q 1235 3277 1466 3277 
Q 1709 3277 1888 3251 
Q 2067 3226 2246 3174 
Q 2285 3162 2313 3136 
Q 2342 3110 2336 3066 
L 2317 2874 
Q 2310 2822 2278 2809 
Q 2246 2797 2214 2810 
Q 2054 2867 1894 2889 
Q 1734 2912 1510 2912 
Q 768 2912 768 2323 
Q 768 2195 867 2080 
Q 966 1965 1203 1850 
Q 1408 1747 1606 1654 
Q 1805 1562 2035 1434 
Q 2234 1325 2365 1101 
Q 2496 877 2496 614 
Q 2496 358 2393 172 
Q 2291 -13 2118 -134 
Q 1946 -256 1722 -317 
Q 1498 -378 1261 -378 
Q 1120 -378 1008 -371 
Q 896 -365 797 -352 
Q 698 -339 595 -320 
Q 493 -301 378 -269 
Q 288 -237 294 -154 
L 320 83 
Q 333 186 422 147 
z
" transform="scale(0.015625)"/>
      <path id="NanumGothic-74" d="M 2208 -282 
Q 1939 -378 1677 -378 
Q 1158 -378 992 -38 
Q 883 192 883 774 
L 883 2816 
L 282 2816 
Q 192 2816 192 2906 
L 192 3098 
Q 192 3187 282 3187 
L 883 3187 
L 883 4051 
Q 883 4147 966 4147 
L 1235 4147 
Q 1318 4147 1318 4051 
L 1318 3187 
L 2029 3187 
Q 2118 3187 2118 3098 
L 2118 2906 
Q 2118 2816 2029 2816 
L 1318 2816 
L 1318 557 
Q 1318 -13 1779 -13 
Q 1958 -13 2182 64 
Q 2214 77 2243 64 
Q 2272 51 2272 13 
L 2285 -154 
Q 2298 -243 2208 -282 
z
" transform="scale(0.015625)"/>
      <path id="NanumGothic-65" d="M 2733 1696 
Q 2733 1958 2681 2163 
Q 2630 2368 2522 2534 
Q 2285 2912 1837 2912 
Q 1376 2912 1088 2528 
Q 973 2355 896 2131 
Q 819 1907 813 1696 
L 2733 1696 
z
M 813 1331 
Q 806 1011 886 764 
Q 966 518 1120 352 
Q 1274 186 1488 96 
Q 1702 6 1965 6 
Q 2221 6 2445 54 
Q 2669 102 2861 211 
Q 2944 250 2944 166 
L 2944 -122 
Q 2944 -179 2874 -211 
Q 2662 -294 2432 -336 
Q 2202 -378 1933 -378 
Q 1146 -378 742 80 
Q 339 538 339 1459 
Q 339 2272 742 2771 
Q 1165 3277 1811 3277 
Q 2170 3277 2432 3149 
Q 2694 3021 2880 2765 
Q 3206 2310 3206 1549 
Q 3206 1466 3203 1421 
Q 3200 1376 3181 1357 
Q 3162 1338 3114 1334 
Q 3066 1331 2976 1331 
L 813 1331 
z
" transform="scale(0.015625)"/>
      <path id="NanumGothic-72" d="M 2221 2797 
Q 2106 2835 1914 2835 
Q 1440 2835 1210 2368 
Q 1030 2003 1030 1434 
L 1030 -186 
Q 1030 -275 941 -275 
L 691 -275 
Q 602 -275 602 -186 
L 602 2413 
Q 602 2643 598 2787 
Q 595 2931 589 3098 
Q 589 3187 678 3187 
L 915 3187 
Q 1005 3187 1005 3098 
L 1005 2470 
Q 1318 3277 1926 3277 
Q 2074 3277 2221 3238 
Q 2259 3226 2288 3197 
Q 2317 3168 2317 3117 
L 2317 2848 
Q 2317 2810 2285 2797 
Q 2253 2784 2221 2797 
z
" transform="scale(0.015625)"/>
      <path id="NanumGothic-3a" d="M 646 3526 
Q 646 3674 755 3782 
Q 864 3891 1011 3891 
Q 1158 3891 1267 3782 
Q 1376 3674 1376 3526 
Q 1376 3379 1267 3270 
Q 1158 3162 1011 3162 
Q 864 3162 755 3270 
Q 646 3379 646 3526 
z
M 646 640 
Q 646 787 755 896 
Q 864 1005 1011 1005 
Q 1158 1005 1267 896 
Q 1376 787 1376 640 
Q 1376 493 1267 384 
Q 1158 275 1011 275 
Q 864 275 755 384 
Q 646 493 646 640 
z
" transform="scale(0.015625)"/>
      <path id="NanumGothic-2c" d="M 1299 115 
Q 1382 115 1382 86 
Q 1382 58 1370 19 
L 947 -1126 
Q 922 -1178 899 -1194 
Q 877 -1210 832 -1210 
L 563 -1210 
Q 480 -1210 499 -1120 
L 800 6 
Q 813 45 838 80 
Q 864 115 934 115 
L 1299 115 
z
" transform="scale(0.015625)"/>
      <path id="NanumGothic-63" d="M 2816 -301 
Q 2624 -333 2445 -345 
Q 2266 -358 2016 -358 
Q 1619 -358 1308 -217 
Q 998 -77 784 166 
Q 570 410 454 742 
Q 339 1075 339 1459 
Q 339 1850 460 2179 
Q 582 2509 809 2749 
Q 1037 2989 1353 3126 
Q 1670 3264 2067 3264 
Q 2278 3264 2451 3248 
Q 2624 3232 2822 3187 
Q 2912 3162 2906 3066 
L 2886 2861 
Q 2874 2784 2790 2803 
Q 2624 2854 2470 2876 
Q 2317 2899 2131 2899 
Q 1805 2899 1558 2793 
Q 1312 2688 1145 2496 
Q 979 2304 896 2038 
Q 813 1773 813 1459 
Q 813 1171 899 908 
Q 986 646 1149 444 
Q 1312 243 1545 124 
Q 1779 6 2080 6 
Q 2304 6 2451 25 
Q 2598 45 2784 96 
Q 2880 122 2886 51 
L 2906 -186 
Q 2912 -282 2816 -301 
z
" transform="scale(0.015625)"/>
      <path id="NanumGothic-38" d="M 2944 3360 
Q 2944 3725 2624 3936 
Q 2342 4134 1965 4134 
Q 1555 4134 1274 3930 
Q 966 3725 966 3360 
Q 966 3027 1286 2758 
Q 1376 2675 1526 2579 
Q 1677 2483 1882 2387 
Q 1933 2362 1965 2365 
Q 1997 2368 2061 2400 
Q 2470 2624 2707 2870 
Q 2944 3117 2944 3360 
z
M 3104 960 
Q 3104 1312 2784 1574 
Q 2682 1658 2496 1760 
Q 2310 1862 2042 1984 
Q 1958 2029 1856 1984 
Q 1606 1888 1414 1782 
Q 1222 1677 1107 1587 
Q 979 1459 899 1289 
Q 819 1120 819 928 
Q 819 538 1184 288 
Q 1517 38 1965 38 
Q 2426 38 2739 256 
Q 3104 506 3104 960 
z
M 3552 928 
Q 3552 614 3421 364 
Q 3290 115 3046 -51 
Q 2835 -192 2560 -269 
Q 2285 -346 1965 -346 
Q 1651 -346 1379 -262 
Q 1107 -179 883 -32 
Q 640 141 505 387 
Q 371 634 371 928 
Q 371 1427 704 1741 
Q 960 1984 1491 2182 
Q 518 2662 518 3411 
Q 518 3680 652 3888 
Q 787 4096 1030 4262 
Q 1235 4390 1468 4457 
Q 1702 4525 1965 4525 
Q 2272 4525 2515 4457 
Q 2758 4390 2957 4256 
Q 3398 3949 3398 3411 
Q 3398 2746 2400 2182 
Q 2662 2086 2870 1971 
Q 3078 1856 3206 1741 
Q 3552 1434 3552 928 
z
" transform="scale(0.015625)"/>
     </defs>
     <use xlink:href="#NanumGothic-23"/>
     <use xlink:href="#NanumGothic-20" x="60.599991"/>
     <use xlink:href="#NanumGothic-6f" x="88.599976"/>
     <use xlink:href="#NanumGothic-66" x="149.199966"/>
     <use xlink:href="#NanumGothic-20" x="185.499954"/>
     <use xlink:href="#NanumGothic-43" x="213.499939"/>
     <use xlink:href="#NanumGothic-6c" x="280.699936"/>
     <use xlink:href="#NanumGothic-75" x="304.899933"/>
     <use xlink:href="#NanumGothic-73" x="365.499924"/>
     <use xlink:href="#NanumGothic-74" x="407.899918"/>
     <use xlink:href="#NanumGothic-65" x="444.199905"/>
     <use xlink:href="#NanumGothic-72" x="498.69989"/>
     <use xlink:href="#NanumGothic-3a" x="534.999878"/>
     <use xlink:href="#NanumGothic-32" x="565.299866"/>
     <use xlink:href="#NanumGothic-20" x="625.899857"/>
     <use xlink:href="#NanumGothic-2c" x="653.899841"/>
     <use xlink:href="#NanumGothic-20" x="684.199829"/>
     <use xlink:href="#NanumGothic-73" x="712.199814"/>
     <use xlink:href="#NanumGothic-63" x="754.599808"/>
     <use xlink:href="#NanumGothic-6f" x="802.999802"/>
     <use xlink:href="#NanumGothic-72" x="863.599792"/>
     <use xlink:href="#NanumGothic-65" x="899.89978"/>
     <use xlink:href="#NanumGothic-3a" x="954.399765"/>
     <use xlink:href="#NanumGothic-30" x="984.699753"/>
     <use xlink:href="#NanumGothic-2e" x="1045.299744"/>
     <use xlink:href="#NanumGothic-32" x="1075.599731"/>
     <use xlink:href="#NanumGothic-38" x="1136.199722"/>
    </g>
   </g>
  </g>
  <g id="axes_2">
   <g id="patch_7">
    <path d="M 308.172414 192.24 
L 452.482759 192.24 
L 452.482759 25.92 
L 308.172414 25.92 
z
" style="fill: #ffffff"/>
   </g>
   <g id="matplotlib.axis_3">
    <g id="xtick_5">
     <g id="line2d_26">
      <path d="M 314.731975 192.24 
L 314.731975 25.92 
" clip-path="url(#p1384f3ece1)" style="fill: none; stroke: #cccccc; stroke-linecap: round"/>
     </g>
     <g id="line2d_27"/>
     <g id="text_14">
      <!-- 0 -->
      <g style="fill: #262626" transform="translate(311.702287 206.760312) scale(0.1 -0.1)">
       <use xlink:href="#NanumGothic-30"/>
      </g>
     </g>
    </g>
    <g id="xtick_6">
     <g id="line2d_28">
      <path d="M 359.970328 192.24 
L 359.970328 25.92 
" clip-path="url(#p1384f3ece1)" style="fill: none; stroke: #cccccc; stroke-linecap: round"/>
     </g>
     <g id="line2d_29"/>
     <g id="text_15">
      <!-- 10 -->
      <g style="fill: #262626" transform="translate(353.910953 206.760312) scale(0.1 -0.1)">
       <use xlink:href="#NanumGothic-31"/>
       <use xlink:href="#NanumGothic-30" x="60.599991"/>
      </g>
     </g>
    </g>
    <g id="xtick_7">
     <g id="line2d_30">
      <path d="M 405.20868 192.24 
L 405.20868 25.92 
" clip-path="url(#p1384f3ece1)" style="fill: none; stroke: #cccccc; stroke-linecap: round"/>
     </g>
     <g id="line2d_31"/>
     <g id="text_16">
      <!-- 20 -->
      <g style="fill: #262626" transform="translate(399.149305 206.760312) scale(0.1 -0.1)">
       <use xlink:href="#NanumGothic-32"/>
       <use xlink:href="#NanumGothic-30" x="60.599991"/>
      </g>
     </g>
    </g>
    <g id="xtick_8">
     <g id="line2d_32">
      <path d="M 450.447033 192.24 
L 450.447033 25.92 
" clip-path="url(#p1384f3ece1)" style="fill: none; stroke: #cccccc; stroke-linecap: round"/>
     </g>
     <g id="line2d_33"/>
     <g id="text_17">
      <!-- 30 -->
      <g style="fill: #262626" transform="translate(444.387658 206.760312) scale(0.1 -0.1)">
       <use xlink:href="#NanumGothic-33"/>
       <use xlink:href="#NanumGothic-30" x="60.599991"/>
      </g>
     </g>
    </g>
   </g>
   <g id="matplotlib.axis_4">
    <g id="ytick_9">
     <g id="line2d_34">
      <path d="M 308.172414 181.68889 
L 452.482759 181.68889 
" clip-path="url(#p1384f3ece1)" style="fill: none; stroke: #cccccc; stroke-linecap: round"/>
     </g>
     <g id="line2d_35"/>
    </g>
    <g id="ytick_10">
     <g id="line2d_36">
      <path d="M 308.172414 160.437771 
L 452.482759 160.437771 
" clip-path="url(#p1384f3ece1)" style="fill: none; stroke: #cccccc; stroke-linecap: round"/>
     </g>
     <g id="line2d_37"/>
    </g>
    <g id="ytick_11">
     <g id="line2d_38">
      <path d="M 308.172414 139.186652 
L 452.482759 139.186652 
" clip-path="url(#p1384f3ece1)" style="fill: none; stroke: #cccccc; stroke-linecap: round"/>
     </g>
     <g id="line2d_39"/>
    </g>
    <g id="ytick_12">
     <g id="line2d_40">
      <path d="M 308.172414 117.935532 
L 452.482759 117.935532 
" clip-path="url(#p1384f3ece1)" style="fill: none; stroke: #cccccc; stroke-linecap: round"/>
     </g>
     <g id="line2d_41"/>
    </g>
    <g id="ytick_13">
     <g id="line2d_42">
      <path d="M 308.172414 96.684413 
L 452.482759 96.684413 
" clip-path="url(#p1384f3ece1)" style="fill: none; stroke: #cccccc; stroke-linecap: round"/>
     </g>
     <g id="line2d_43"/>
    </g>
    <g id="ytick_14">
     <g id="line2d_44">
      <path d="M 308.172414 75.433294 
L 452.482759 75.433294 
" clip-path="url(#p1384f3ece1)" style="fill: none; stroke: #cccccc; stroke-linecap: round"/>
     </g>
     <g id="line2d_45"/>
    </g>
    <g id="ytick_15">
     <g id="line2d_46">
      <path d="M 308.172414 54.182175 
L 452.482759 54.182175 
" clip-path="url(#p1384f3ece1)" style="fill: none; stroke: #cccccc; stroke-linecap: round"/>
     </g>
     <g id="line2d_47"/>
    </g>
    <g id="ytick_16">
     <g id="line2d_48">
      <path d="M 308.172414 32.931056 
L 452.482759 32.931056 
" clip-path="url(#p1384f3ece1)" style="fill: none; stroke: #cccccc; stroke-linecap: round"/>
     </g>
     <g id="line2d_49"/>
    </g>
   </g>
   <g id="line2d_50">
    <path d="M 314.731975 146.628484 
L 319.25581 143.78693 
L 323.779645 129.027451 
L 328.303481 120.369117 
L 332.827316 119.907911 
L 337.351151 115.26825 
L 341.874986 114.608453 
L 346.398822 111.00502 
L 350.922657 101.754061 
L 355.446492 97.83918 
L 359.970328 93.395402 
L 364.494163 92.64236 
L 369.017998 92.437435 
L 373.541833 87.890369 
L 378.065669 86.609578 
L 382.589504 84.851162 
L 387.113339 84.687596 
L 391.637174 82.760706 
L 396.16101 80.408103 
L 400.684845 75.155928 
L 405.20868 73.55913 
L 409.732515 72.820703 
L 414.256351 65.109594 
L 418.780186 64.407956 
L 423.304021 62.902483 
L 427.827856 56.586199 
L 432.351692 51.213006 
L 436.875527 47.647874 
L 441.399362 46.797158 
L 445.923197 43.942538 
" clip-path="url(#p1384f3ece1)" style="fill: none; stroke-dasharray: 7.4,3.2; stroke-dashoffset: 0; stroke: #ff0000; stroke-width: 2"/>
   </g>
   <g id="patch_8">
    <path d="M 308.172414 192.24 
L 308.172414 25.92 
" style="fill: none; stroke: #cccccc; stroke-width: 1.25; stroke-linejoin: miter; stroke-linecap: square"/>
   </g>
   <g id="patch_9">
    <path d="M 452.482759 192.24 
L 452.482759 25.92 
" style="fill: none; stroke: #cccccc; stroke-width: 1.25; stroke-linejoin: miter; stroke-linecap: square"/>
   </g>
   <g id="patch_10">
    <path d="M 308.172414 192.24 
L 452.482759 192.24 
" style="fill: none; stroke: #cccccc; stroke-width: 1.25; stroke-linejoin: miter; stroke-linecap: square"/>
   </g>
   <g id="patch_11">
    <path d="M 308.172414 25.92 
L 452.482759 25.92 
" style="fill: none; stroke: #cccccc; stroke-width: 1.25; stroke-linejoin: miter; stroke-linecap: square"/>
   </g>
   <g id="text_18">
    <!-- # of Cluster:3 , score:0.24 -->
    <g style="fill: #262626" transform="translate(308.522586 19.92) scale(0.12 -0.12)">
     <use xlink:href="#NanumGothic-23"/>
     <use xlink:href="#NanumGothic-20" x="60.599991"/>
     <use xlink:href="#NanumGothic-6f" x="88.599976"/>
     <use xlink:href="#NanumGothic-66" x="149.199966"/>
     <use xlink:href="#NanumGothic-20" x="185.499954"/>
     <use xlink:href="#NanumGothic-43" x="213.499939"/>
     <use xlink:href="#NanumGothic-6c" x="280.699936"/>
     <use xlink:href="#NanumGothic-75" x="304.899933"/>
     <use xlink:href="#NanumGothic-73" x="365.499924"/>
     <use xlink:href="#NanumGothic-74" x="407.899918"/>
     <use xlink:href="#NanumGothic-65" x="444.199905"/>
     <use xlink:href="#NanumGothic-72" x="498.69989"/>
     <use xlink:href="#NanumGothic-3a" x="534.999878"/>
     <use xlink:href="#NanumGothic-33" x="565.299866"/>
     <use xlink:href="#NanumGothic-20" x="625.899857"/>
     <use xlink:href="#NanumGothic-2c" x="653.899841"/>
     <use xlink:href="#NanumGothic-20" x="684.199829"/>
     <use xlink:href="#NanumGothic-73" x="712.199814"/>
     <use xlink:href="#NanumGothic-63" x="754.599808"/>
     <use xlink:href="#NanumGothic-6f" x="802.999802"/>
     <use xlink:href="#NanumGothic-72" x="863.599792"/>
     <use xlink:href="#NanumGothic-65" x="899.89978"/>
     <use xlink:href="#NanumGothic-3a" x="954.399765"/>
     <use xlink:href="#NanumGothic-30" x="984.699753"/>
     <use xlink:href="#NanumGothic-2e" x="1045.299744"/>
     <use xlink:href="#NanumGothic-32" x="1075.599731"/>
     <use xlink:href="#NanumGothic-34" x="1136.199722"/>
    </g>
   </g>
  </g>
  <g id="axes_3">
   <g id="patch_12">
    <path d="M 481.344828 192.24 
L 625.655172 192.24 
L 625.655172 25.92 
L 481.344828 25.92 
z
" style="fill: #ffffff"/>
   </g>
   <g id="matplotlib.axis_5">
    <g id="xtick_9">
     <g id="line2d_51">
      <path d="M 487.904389 192.24 
L 487.904389 25.92 
" clip-path="url(#p84fd87bea7)" style="fill: none; stroke: #cccccc; stroke-linecap: round"/>
     </g>
     <g id="line2d_52"/>
     <g id="text_19">
      <!-- 0 -->
      <g style="fill: #262626" transform="translate(484.874701 206.760312) scale(0.1 -0.1)">
       <use xlink:href="#NanumGothic-30"/>
      </g>
     </g>
    </g>
    <g id="xtick_10">
     <g id="line2d_53">
      <path d="M 533.142741 192.24 
L 533.142741 25.92 
" clip-path="url(#p84fd87bea7)" style="fill: none; stroke: #cccccc; stroke-linecap: round"/>
     </g>
     <g id="line2d_54"/>
     <g id="text_20">
      <!-- 10 -->
      <g style="fill: #262626" transform="translate(527.083366 206.760312) scale(0.1 -0.1)">
       <use xlink:href="#NanumGothic-31"/>
       <use xlink:href="#NanumGothic-30" x="60.599991"/>
      </g>
     </g>
    </g>
    <g id="xtick_11">
     <g id="line2d_55">
      <path d="M 578.381094 192.24 
L 578.381094 25.92 
" clip-path="url(#p84fd87bea7)" style="fill: none; stroke: #cccccc; stroke-linecap: round"/>
     </g>
     <g id="line2d_56"/>
     <g id="text_21">
      <!-- 20 -->
      <g style="fill: #262626" transform="translate(572.321719 206.760312) scale(0.1 -0.1)">
       <use xlink:href="#NanumGothic-32"/>
       <use xlink:href="#NanumGothic-30" x="60.599991"/>
      </g>
     </g>
    </g>
    <g id="xtick_12">
     <g id="line2d_57">
      <path d="M 623.619447 192.24 
L 623.619447 25.92 
" clip-path="url(#p84fd87bea7)" style="fill: none; stroke: #cccccc; stroke-linecap: round"/>
     </g>
     <g id="line2d_58"/>
     <g id="text_22">
      <!-- 30 -->
      <g style="fill: #262626" transform="translate(617.560072 206.760312) scale(0.1 -0.1)">
       <use xlink:href="#NanumGothic-33"/>
       <use xlink:href="#NanumGothic-30" x="60.599991"/>
      </g>
     </g>
    </g>
   </g>
   <g id="matplotlib.axis_6">
    <g id="ytick_17">
     <g id="line2d_59">
      <path d="M 481.344828 181.68889 
L 625.655172 181.68889 
" clip-path="url(#p84fd87bea7)" style="fill: none; stroke: #cccccc; stroke-linecap: round"/>
     </g>
     <g id="line2d_60"/>
    </g>
    <g id="ytick_18">
     <g id="line2d_61">
      <path d="M 481.344828 160.437771 
L 625.655172 160.437771 
" clip-path="url(#p84fd87bea7)" style="fill: none; stroke: #cccccc; stroke-linecap: round"/>
     </g>
     <g id="line2d_62"/>
    </g>
    <g id="ytick_19">
     <g id="line2d_63">
      <path d="M 481.344828 139.186652 
L 625.655172 139.186652 
" clip-path="url(#p84fd87bea7)" style="fill: none; stroke: #cccccc; stroke-linecap: round"/>
     </g>
     <g id="line2d_64"/>
    </g>
    <g id="ytick_20">
     <g id="line2d_65">
      <path d="M 481.344828 117.935532 
L 625.655172 117.935532 
" clip-path="url(#p84fd87bea7)" style="fill: none; stroke: #cccccc; stroke-linecap: round"/>
     </g>
     <g id="line2d_66"/>
    </g>
    <g id="ytick_21">
     <g id="line2d_67">
      <path d="M 481.344828 96.684413 
L 625.655172 96.684413 
" clip-path="url(#p84fd87bea7)" style="fill: none; stroke: #cccccc; stroke-linecap: round"/>
     </g>
     <g id="line2d_68"/>
    </g>
    <g id="ytick_22">
     <g id="line2d_69">
      <path d="M 481.344828 75.433294 
L 625.655172 75.433294 
" clip-path="url(#p84fd87bea7)" style="fill: none; stroke: #cccccc; stroke-linecap: round"/>
     </g>
     <g id="line2d_70"/>
    </g>
    <g id="ytick_23">
     <g id="line2d_71">
      <path d="M 481.344828 54.182175 
L 625.655172 54.182175 
" clip-path="url(#p84fd87bea7)" style="fill: none; stroke: #cccccc; stroke-linecap: round"/>
     </g>
     <g id="line2d_72"/>
    </g>
    <g id="ytick_24">
     <g id="line2d_73">
      <path d="M 481.344828 32.931056 
L 625.655172 32.931056 
" clip-path="url(#p84fd87bea7)" style="fill: none; stroke: #cccccc; stroke-linecap: round"/>
     </g>
     <g id="line2d_74"/>
    </g>
   </g>
   <g id="line2d_75">
    <path d="M 487.904389 184.68 
L 492.428224 180.933103 
L 496.952059 165.381604 
L 501.475894 163.515473 
L 505.99973 161.545468 
L 510.523565 154.812882 
L 515.0474 152.037565 
L 519.571236 146.570774 
L 524.095071 141.113166 
L 528.618906 132.582944 
L 533.142741 130.773707 
L 537.666577 121.566945 
L 542.190412 118.199185 
L 546.714247 115.52526 
L 551.238082 103.566614 
L 555.761918 98.675683 
L 560.285753 84.550983 
L 564.809588 77.30083 
L 569.333423 73.305614 
L 573.857259 71.598459 
L 578.381094 56.592873 
L 582.904929 56.223628 
L 587.428764 54.661996 
L 591.9526 53.619701 
L 596.476435 50.53323 
L 601.00027 46.095047 
L 605.524106 40.688806 
L 610.047941 34.924755 
L 614.571776 33.582657 
L 619.095611 33.48 
" clip-path="url(#p84fd87bea7)" style="fill: none; stroke-dasharray: 7.4,3.2; stroke-dashoffset: 0; stroke: #ff0000; stroke-width: 2"/>
   </g>
   <g id="patch_13">
    <path d="M 481.344828 192.24 
L 481.344828 25.92 
" style="fill: none; stroke: #cccccc; stroke-width: 1.25; stroke-linejoin: miter; stroke-linecap: square"/>
   </g>
   <g id="patch_14">
    <path d="M 625.655172 192.24 
L 625.655172 25.92 
" style="fill: none; stroke: #cccccc; stroke-width: 1.25; stroke-linejoin: miter; stroke-linecap: square"/>
   </g>
   <g id="patch_15">
    <path d="M 481.344828 192.24 
L 625.655172 192.24 
" style="fill: none; stroke: #cccccc; stroke-width: 1.25; stroke-linejoin: miter; stroke-linecap: square"/>
   </g>
   <g id="patch_16">
    <path d="M 481.344828 25.92 
L 625.655172 25.92 
" style="fill: none; stroke: #cccccc; stroke-width: 1.25; stroke-linejoin: miter; stroke-linecap: square"/>
   </g>
   <g id="text_23">
    <!-- # of Cluster:4 , score:0.18 -->
    <g style="fill: #262626" transform="translate(481.695 19.92) scale(0.12 -0.12)">
     <use xlink:href="#NanumGothic-23"/>
     <use xlink:href="#NanumGothic-20" x="60.599991"/>
     <use xlink:href="#NanumGothic-6f" x="88.599976"/>
     <use xlink:href="#NanumGothic-66" x="149.199966"/>
     <use xlink:href="#NanumGothic-20" x="185.499954"/>
     <use xlink:href="#NanumGothic-43" x="213.499939"/>
     <use xlink:href="#NanumGothic-6c" x="280.699936"/>
     <use xlink:href="#NanumGothic-75" x="304.899933"/>
     <use xlink:href="#NanumGothic-73" x="365.499924"/>
     <use xlink:href="#NanumGothic-74" x="407.899918"/>
     <use xlink:href="#NanumGothic-65" x="444.199905"/>
     <use xlink:href="#NanumGothic-72" x="498.69989"/>
     <use xlink:href="#NanumGothic-3a" x="534.999878"/>
     <use xlink:href="#NanumGothic-34" x="565.299866"/>
     <use xlink:href="#NanumGothic-20" x="625.899857"/>
     <use xlink:href="#NanumGothic-2c" x="653.899841"/>
     <use xlink:href="#NanumGothic-20" x="684.199829"/>
     <use xlink:href="#NanumGothic-73" x="712.199814"/>
     <use xlink:href="#NanumGothic-63" x="754.599808"/>
     <use xlink:href="#NanumGothic-6f" x="802.999802"/>
     <use xlink:href="#NanumGothic-72" x="863.599792"/>
     <use xlink:href="#NanumGothic-65" x="899.89978"/>
     <use xlink:href="#NanumGothic-3a" x="954.399765"/>
     <use xlink:href="#NanumGothic-30" x="984.699753"/>
     <use xlink:href="#NanumGothic-2e" x="1045.299744"/>
     <use xlink:href="#NanumGothic-31" x="1075.599731"/>
     <use xlink:href="#NanumGothic-38" x="1136.199722"/>
    </g>
   </g>
  </g>
  <g id="axes_4">
   <g id="patch_17">
    <path d="M 654.517241 192.24 
L 798.827586 192.24 
L 798.827586 25.92 
L 654.517241 25.92 
z
" style="fill: #ffffff"/>
   </g>
   <g id="matplotlib.axis_7">
    <g id="xtick_13">
     <g id="line2d_76">
      <path d="M 661.076803 192.24 
L 661.076803 25.92 
" clip-path="url(#pec1364f9a0)" style="fill: none; stroke: #cccccc; stroke-linecap: round"/>
     </g>
     <g id="line2d_77"/>
     <g id="text_24">
      <!-- 0 -->
      <g style="fill: #262626" transform="translate(658.047115 206.760312) scale(0.1 -0.1)">
       <use xlink:href="#NanumGothic-30"/>
      </g>
     </g>
    </g>
    <g id="xtick_14">
     <g id="line2d_78">
      <path d="M 706.315155 192.24 
L 706.315155 25.92 
" clip-path="url(#pec1364f9a0)" style="fill: none; stroke: #cccccc; stroke-linecap: round"/>
     </g>
     <g id="line2d_79"/>
     <g id="text_25">
      <!-- 10 -->
      <g style="fill: #262626" transform="translate(700.25578 206.760312) scale(0.1 -0.1)">
       <use xlink:href="#NanumGothic-31"/>
       <use xlink:href="#NanumGothic-30" x="60.599991"/>
      </g>
     </g>
    </g>
    <g id="xtick_15">
     <g id="line2d_80">
      <path d="M 751.553508 192.24 
L 751.553508 25.92 
" clip-path="url(#pec1364f9a0)" style="fill: none; stroke: #cccccc; stroke-linecap: round"/>
     </g>
     <g id="line2d_81"/>
     <g id="text_26">
      <!-- 20 -->
      <g style="fill: #262626" transform="translate(745.494133 206.760312) scale(0.1 -0.1)">
       <use xlink:href="#NanumGothic-32"/>
       <use xlink:href="#NanumGothic-30" x="60.599991"/>
      </g>
     </g>
    </g>
    <g id="xtick_16">
     <g id="line2d_82">
      <path d="M 796.79186 192.24 
L 796.79186 25.92 
" clip-path="url(#pec1364f9a0)" style="fill: none; stroke: #cccccc; stroke-linecap: round"/>
     </g>
     <g id="line2d_83"/>
     <g id="text_27">
      <!-- 30 -->
      <g style="fill: #262626" transform="translate(790.732485 206.760312) scale(0.1 -0.1)">
       <use xlink:href="#NanumGothic-33"/>
       <use xlink:href="#NanumGothic-30" x="60.599991"/>
      </g>
     </g>
    </g>
   </g>
   <g id="matplotlib.axis_8">
    <g id="ytick_25">
     <g id="line2d_84">
      <path d="M 654.517241 181.68889 
L 798.827586 181.68889 
" clip-path="url(#pec1364f9a0)" style="fill: none; stroke: #cccccc; stroke-linecap: round"/>
     </g>
     <g id="line2d_85"/>
    </g>
    <g id="ytick_26">
     <g id="line2d_86">
      <path d="M 654.517241 160.437771 
L 798.827586 160.437771 
" clip-path="url(#pec1364f9a0)" style="fill: none; stroke: #cccccc; stroke-linecap: round"/>
     </g>
     <g id="line2d_87"/>
    </g>
    <g id="ytick_27">
     <g id="line2d_88">
      <path d="M 654.517241 139.186652 
L 798.827586 139.186652 
" clip-path="url(#pec1364f9a0)" style="fill: none; stroke: #cccccc; stroke-linecap: round"/>
     </g>
     <g id="line2d_89"/>
    </g>
    <g id="ytick_28">
     <g id="line2d_90">
      <path d="M 654.517241 117.935532 
L 798.827586 117.935532 
" clip-path="url(#pec1364f9a0)" style="fill: none; stroke: #cccccc; stroke-linecap: round"/>
     </g>
     <g id="line2d_91"/>
    </g>
    <g id="ytick_29">
     <g id="line2d_92">
      <path d="M 654.517241 96.684413 
L 798.827586 96.684413 
" clip-path="url(#pec1364f9a0)" style="fill: none; stroke: #cccccc; stroke-linecap: round"/>
     </g>
     <g id="line2d_93"/>
    </g>
    <g id="ytick_30">
     <g id="line2d_94">
      <path d="M 654.517241 75.433294 
L 798.827586 75.433294 
" clip-path="url(#pec1364f9a0)" style="fill: none; stroke: #cccccc; stroke-linecap: round"/>
     </g>
     <g id="line2d_95"/>
    </g>
    <g id="ytick_31">
     <g id="line2d_96">
      <path d="M 654.517241 54.182175 
L 798.827586 54.182175 
" clip-path="url(#pec1364f9a0)" style="fill: none; stroke: #cccccc; stroke-linecap: round"/>
     </g>
     <g id="line2d_97"/>
    </g>
    <g id="ytick_32">
     <g id="line2d_98">
      <path d="M 654.517241 32.931056 
L 798.827586 32.931056 
" clip-path="url(#pec1364f9a0)" style="fill: none; stroke: #cccccc; stroke-linecap: round"/>
     </g>
     <g id="line2d_99"/>
    </g>
   </g>
   <g id="line2d_100">
    <path d="M 661.076803 154.391044 
L 665.600638 142.39823 
L 670.124473 137.549614 
L 674.648308 136.21962 
L 679.172144 130.099144 
L 683.695979 129.672869 
L 688.219814 128.873495 
L 692.743649 120.393426 
L 697.267485 118.483362 
L 701.79132 118.256901 
L 706.315155 114.762416 
L 710.83899 110.957656 
L 715.362826 105.450092 
L 719.886661 96.879937 
L 724.410496 96.710001 
L 728.934331 90.202842 
L 733.458167 84.235105 
L 737.982002 78.668669 
L 742.505837 74.289219 
L 747.029672 72.620975 
L 751.553508 69.119503 
L 756.077343 65.921851 
L 760.601178 61.552757 
L 765.125014 60.495186 
L 769.648849 58.321909 
L 774.172684 56.860817 
L 778.696519 50.92427 
L 783.220355 44.918053 
L 787.74419 39.147223 
L 792.268025 33.66161 
" clip-path="url(#pec1364f9a0)" style="fill: none; stroke-dasharray: 7.4,3.2; stroke-dashoffset: 0; stroke: #ff0000; stroke-width: 2"/>
   </g>
   <g id="patch_18">
    <path d="M 654.517241 192.24 
L 654.517241 25.92 
" style="fill: none; stroke: #cccccc; stroke-width: 1.25; stroke-linejoin: miter; stroke-linecap: square"/>
   </g>
   <g id="patch_19">
    <path d="M 798.827586 192.24 
L 798.827586 25.92 
" style="fill: none; stroke: #cccccc; stroke-width: 1.25; stroke-linejoin: miter; stroke-linecap: square"/>
   </g>
   <g id="patch_20">
    <path d="M 654.517241 192.24 
L 798.827586 192.24 
" style="fill: none; stroke: #cccccc; stroke-width: 1.25; stroke-linejoin: miter; stroke-linecap: square"/>
   </g>
   <g id="patch_21">
    <path d="M 654.517241 25.92 
L 798.827586 25.92 
" style="fill: none; stroke: #cccccc; stroke-width: 1.25; stroke-linejoin: miter; stroke-linecap: square"/>
   </g>
   <g id="text_28">
    <!-- # of Cluster:5 , score:0.22 -->
    <g style="fill: #262626" transform="translate(654.867414 19.92) scale(0.12 -0.12)">
     <use xlink:href="#NanumGothic-23"/>
     <use xlink:href="#NanumGothic-20" x="60.599991"/>
     <use xlink:href="#NanumGothic-6f" x="88.599976"/>
     <use xlink:href="#NanumGothic-66" x="149.199966"/>
     <use xlink:href="#NanumGothic-20" x="185.499954"/>
     <use xlink:href="#NanumGothic-43" x="213.499939"/>
     <use xlink:href="#NanumGothic-6c" x="280.699936"/>
     <use xlink:href="#NanumGothic-75" x="304.899933"/>
     <use xlink:href="#NanumGothic-73" x="365.499924"/>
     <use xlink:href="#NanumGothic-74" x="407.899918"/>
     <use xlink:href="#NanumGothic-65" x="444.199905"/>
     <use xlink:href="#NanumGothic-72" x="498.69989"/>
     <use xlink:href="#NanumGothic-3a" x="534.999878"/>
     <use xlink:href="#NanumGothic-35" x="565.299866"/>
     <use xlink:href="#NanumGothic-20" x="625.899857"/>
     <use xlink:href="#NanumGothic-2c" x="653.899841"/>
     <use xlink:href="#NanumGothic-20" x="684.199829"/>
     <use xlink:href="#NanumGothic-73" x="712.199814"/>
     <use xlink:href="#NanumGothic-63" x="754.599808"/>
     <use xlink:href="#NanumGothic-6f" x="802.999802"/>
     <use xlink:href="#NanumGothic-72" x="863.599792"/>
     <use xlink:href="#NanumGothic-65" x="899.89978"/>
     <use xlink:href="#NanumGothic-3a" x="954.399765"/>
     <use xlink:href="#NanumGothic-30" x="984.699753"/>
     <use xlink:href="#NanumGothic-2e" x="1045.299744"/>
     <use xlink:href="#NanumGothic-32" x="1075.599731"/>
     <use xlink:href="#NanumGothic-32" x="1136.199722"/>
    </g>
   </g>
  </g>
  <g id="axes_5">
   <g id="patch_22">
    <path d="M 827.689655 192.24 
L 972 192.24 
L 972 25.92 
L 827.689655 25.92 
z
" style="fill: #ffffff"/>
   </g>
   <g id="matplotlib.axis_9">
    <g id="xtick_17">
     <g id="line2d_101">
      <path d="M 834.249216 192.24 
L 834.249216 25.92 
" clip-path="url(#p61057b55c0)" style="fill: none; stroke: #cccccc; stroke-linecap: round"/>
     </g>
     <g id="line2d_102"/>
     <g id="text_29">
      <!-- 0 -->
      <g style="fill: #262626" transform="translate(831.219529 206.760312) scale(0.1 -0.1)">
       <use xlink:href="#NanumGothic-30"/>
      </g>
     </g>
    </g>
    <g id="xtick_18">
     <g id="line2d_103">
      <path d="M 879.487569 192.24 
L 879.487569 25.92 
" clip-path="url(#p61057b55c0)" style="fill: none; stroke: #cccccc; stroke-linecap: round"/>
     </g>
     <g id="line2d_104"/>
     <g id="text_30">
      <!-- 10 -->
      <g style="fill: #262626" transform="translate(873.428194 206.760312) scale(0.1 -0.1)">
       <use xlink:href="#NanumGothic-31"/>
       <use xlink:href="#NanumGothic-30" x="60.599991"/>
      </g>
     </g>
    </g>
    <g id="xtick_19">
     <g id="line2d_105">
      <path d="M 924.725922 192.24 
L 924.725922 25.92 
" clip-path="url(#p61057b55c0)" style="fill: none; stroke: #cccccc; stroke-linecap: round"/>
     </g>
     <g id="line2d_106"/>
     <g id="text_31">
      <!-- 20 -->
      <g style="fill: #262626" transform="translate(918.666547 206.760312) scale(0.1 -0.1)">
       <use xlink:href="#NanumGothic-32"/>
       <use xlink:href="#NanumGothic-30" x="60.599991"/>
      </g>
     </g>
    </g>
    <g id="xtick_20">
     <g id="line2d_107">
      <path d="M 969.964274 192.24 
L 969.964274 25.92 
" clip-path="url(#p61057b55c0)" style="fill: none; stroke: #cccccc; stroke-linecap: round"/>
     </g>
     <g id="line2d_108"/>
     <g id="text_32">
      <!-- 30 -->
      <g style="fill: #262626" transform="translate(963.904899 206.760312) scale(0.1 -0.1)">
       <use xlink:href="#NanumGothic-33"/>
       <use xlink:href="#NanumGothic-30" x="60.599991"/>
      </g>
     </g>
    </g>
   </g>
   <g id="matplotlib.axis_10">
    <g id="ytick_33">
     <g id="line2d_109">
      <path d="M 827.689655 181.68889 
L 972 181.68889 
" clip-path="url(#p61057b55c0)" style="fill: none; stroke: #cccccc; stroke-linecap: round"/>
     </g>
     <g id="line2d_110"/>
    </g>
    <g id="ytick_34">
     <g id="line2d_111">
      <path d="M 827.689655 160.437771 
L 972 160.437771 
" clip-path="url(#p61057b55c0)" style="fill: none; stroke: #cccccc; stroke-linecap: round"/>
     </g>
     <g id="line2d_112"/>
    </g>
    <g id="ytick_35">
     <g id="line2d_113">
      <path d="M 827.689655 139.186652 
L 972 139.186652 
" clip-path="url(#p61057b55c0)" style="fill: none; stroke: #cccccc; stroke-linecap: round"/>
     </g>
     <g id="line2d_114"/>
    </g>
    <g id="ytick_36">
     <g id="line2d_115">
      <path d="M 827.689655 117.935532 
L 972 117.935532 
" clip-path="url(#p61057b55c0)" style="fill: none; stroke: #cccccc; stroke-linecap: round"/>
     </g>
     <g id="line2d_116"/>
    </g>
    <g id="ytick_37">
     <g id="line2d_117">
      <path d="M 827.689655 96.684413 
L 972 96.684413 
" clip-path="url(#p61057b55c0)" style="fill: none; stroke: #cccccc; stroke-linecap: round"/>
     </g>
     <g id="line2d_118"/>
    </g>
    <g id="ytick_38">
     <g id="line2d_119">
      <path d="M 827.689655 75.433294 
L 972 75.433294 
" clip-path="url(#p61057b55c0)" style="fill: none; stroke: #cccccc; stroke-linecap: round"/>
     </g>
     <g id="line2d_120"/>
    </g>
    <g id="ytick_39">
     <g id="line2d_121">
      <path d="M 827.689655 54.182175 
L 972 54.182175 
" clip-path="url(#p61057b55c0)" style="fill: none; stroke: #cccccc; stroke-linecap: round"/>
     </g>
     <g id="line2d_122"/>
    </g>
    <g id="ytick_40">
     <g id="line2d_123">
      <path d="M 827.689655 32.931056 
L 972 32.931056 
" clip-path="url(#p61057b55c0)" style="fill: none; stroke: #cccccc; stroke-linecap: round"/>
     </g>
     <g id="line2d_124"/>
    </g>
   </g>
   <g id="line2d_125">
    <path d="M 834.249216 157.435705 
L 838.773052 154.370074 
L 843.296887 148.031501 
L 847.820722 141.621124 
L 852.344557 141.265787 
L 856.868393 140.796366 
L 861.392228 129.287822 
L 865.916063 128.609534 
L 870.439898 120.028559 
L 874.963734 117.502808 
L 879.487569 108.890219 
L 884.011404 104.311433 
L 888.535239 98.144889 
L 893.059075 98.093183 
L 897.58291 94.429588 
L 902.106745 91.381488 
L 906.63058 90.446715 
L 911.154416 88.038293 
L 915.678251 84.868414 
L 920.202086 79.499809 
L 924.725922 67.107237 
L 929.249757 67.090721 
L 933.773592 62.011553 
L 938.297427 56.350353 
L 942.821263 55.054743 
L 947.345098 48.219859 
L 951.868933 48.05186 
L 956.392768 46.313446 
L 960.916604 42.793086 
L 965.440439 36.271791 
" clip-path="url(#p61057b55c0)" style="fill: none; stroke-dasharray: 7.4,3.2; stroke-dashoffset: 0; stroke: #ff0000; stroke-width: 2"/>
   </g>
   <g id="patch_23">
    <path d="M 827.689655 192.24 
L 827.689655 25.92 
" style="fill: none; stroke: #cccccc; stroke-width: 1.25; stroke-linejoin: miter; stroke-linecap: square"/>
   </g>
   <g id="patch_24">
    <path d="M 972 192.24 
L 972 25.92 
" style="fill: none; stroke: #cccccc; stroke-width: 1.25; stroke-linejoin: miter; stroke-linecap: square"/>
   </g>
   <g id="patch_25">
    <path d="M 827.689655 192.24 
L 972 192.24 
" style="fill: none; stroke: #cccccc; stroke-width: 1.25; stroke-linejoin: miter; stroke-linecap: square"/>
   </g>
   <g id="patch_26">
    <path d="M 827.689655 25.92 
L 972 25.92 
" style="fill: none; stroke: #cccccc; stroke-width: 1.25; stroke-linejoin: miter; stroke-linecap: square"/>
   </g>
   <g id="text_33">
    <!-- # of Cluster:6 , score:0.21 -->
    <g style="fill: #262626" transform="translate(828.039828 19.92) scale(0.12 -0.12)">
     <defs>
      <path id="NanumGothic-36" d="M 3078 1203 
Q 3078 1722 2810 2022 
Q 2541 2330 2042 2330 
Q 1786 2330 1581 2250 
Q 1376 2170 1232 2029 
Q 1088 1888 1008 1689 
Q 928 1491 928 1254 
Q 928 768 1197 435 
Q 1491 45 1984 45 
Q 2490 45 2797 384 
Q 3078 704 3078 1203 
z
M 3245 4013 
Q 3098 4064 2909 4096 
Q 2720 4128 2534 4128 
Q 1664 4128 1248 3501 
Q 896 2976 883 2061 
Q 1024 2317 1293 2496 
Q 1626 2733 2042 2733 
Q 2624 2733 3021 2426 
Q 3526 2035 3526 1235 
Q 3526 557 3110 109 
Q 2688 -346 1971 -346 
Q 435 -346 435 1920 
Q 435 3104 909 3770 
Q 1466 4525 2586 4525 
Q 2752 4525 2934 4499 
Q 3117 4474 3270 4429 
Q 3366 4410 3354 4314 
L 3341 4077 
Q 3341 4032 3309 4016 
Q 3277 4000 3245 4013 
z
" transform="scale(0.015625)"/>
     </defs>
     <use xlink:href="#NanumGothic-23"/>
     <use xlink:href="#NanumGothic-20" x="60.599991"/>
     <use xlink:href="#NanumGothic-6f" x="88.599976"/>
     <use xlink:href="#NanumGothic-66" x="149.199966"/>
     <use xlink:href="#NanumGothic-20" x="185.499954"/>
     <use xlink:href="#NanumGothic-43" x="213.499939"/>
     <use xlink:href="#NanumGothic-6c" x="280.699936"/>
     <use xlink:href="#NanumGothic-75" x="304.899933"/>
     <use xlink:href="#NanumGothic-73" x="365.499924"/>
     <use xlink:href="#NanumGothic-74" x="407.899918"/>
     <use xlink:href="#NanumGothic-65" x="444.199905"/>
     <use xlink:href="#NanumGothic-72" x="498.69989"/>
     <use xlink:href="#NanumGothic-3a" x="534.999878"/>
     <use xlink:href="#NanumGothic-36" x="565.299866"/>
     <use xlink:href="#NanumGothic-20" x="625.899857"/>
     <use xlink:href="#NanumGothic-2c" x="653.899841"/>
     <use xlink:href="#NanumGothic-20" x="684.199829"/>
     <use xlink:href="#NanumGothic-73" x="712.199814"/>
     <use xlink:href="#NanumGothic-63" x="754.599808"/>
     <use xlink:href="#NanumGothic-6f" x="802.999802"/>
     <use xlink:href="#NanumGothic-72" x="863.599792"/>
     <use xlink:href="#NanumGothic-65" x="899.89978"/>
     <use xlink:href="#NanumGothic-3a" x="954.399765"/>
     <use xlink:href="#NanumGothic-30" x="984.699753"/>
     <use xlink:href="#NanumGothic-2e" x="1045.299744"/>
     <use xlink:href="#NanumGothic-32" x="1075.599731"/>
     <use xlink:href="#NanumGothic-31" x="1136.199722"/>
    </g>
   </g>
  </g>
 </g>
 <defs>
  <clipPath id="p75f3c9add1">
   <rect x="135" y="25.92" width="144.310345" height="166.32"/>
  </clipPath>
  <clipPath id="p1384f3ece1">
   <rect x="308.172414" y="25.92" width="144.310345" height="166.32"/>
  </clipPath>
  <clipPath id="p84fd87bea7">
   <rect x="481.344828" y="25.92" width="144.310345" height="166.32"/>
  </clipPath>
  <clipPath id="pec1364f9a0">
   <rect x="654.517241" y="25.92" width="144.310345" height="166.32"/>
  </clipPath>
  <clipPath id="p61057b55c0">
   <rect x="827.689655" y="25.92" width="144.310345" height="166.32"/>
  </clipPath>
 </defs>
</svg>
